<?xml version="1.0" encoding="utf-8" standalone="no"?>
<!DOCTYPE svg PUBLIC "-//W3C//DTD SVG 1.1//EN"
  "http://www.w3.org/Graphics/SVG/1.1/DTD/svg11.dtd">
<svg xmlns:xlink="http://www.w3.org/1999/xlink" width="1431.610625pt" height="707.629657pt" viewBox="0 0 1431.610625 707.629657" xmlns="http://www.w3.org/2000/svg" version="1.1">
 <metadata>
  <rdf:RDF xmlns:dc="http://purl.org/dc/elements/1.1/" xmlns:cc="http://creativecommons.org/ns#" xmlns:rdf="http://www.w3.org/1999/02/22-rdf-syntax-ns#">
   <cc:Work>
    <dc:type rdf:resource="http://purl.org/dc/dcmitype/StillImage"/>
    <dc:date>2025-04-09T19:48:47.463785</dc:date>
    <dc:format>image/svg+xml</dc:format>
    <dc:creator>
     <cc:Agent>
      <dc:title>Matplotlib v3.9.4, https://matplotlib.org/</dc:title>
     </cc:Agent>
    </dc:creator>
   </cc:Work>
  </rdf:RDF>
 </metadata>
 <defs>
  <style type="text/css">*{stroke-linejoin: round; stroke-linecap: butt}</style>
 </defs>
 <g id="figure_1">
  <g id="patch_1">
   <path d="M 0 707.629657 
L 1431.610625 707.629657 
L 1431.610625 0 
L 0 0 
z
" style="fill: #ffffff"/>
  </g>
  <g id="axes_1">
   <g id="patch_2">
    <path d="M 44.200625 629.016222 
L 728.905625 629.016222 
L 728.905625 86.28 
L 44.200625 86.28 
z
" style="fill: #ffffff"/>
   </g>
   <g id="matplotlib.axis_1">
    <g id="xtick_1">
     <g id="line2d_1">
      <path d="M 59.762102 629.016222 
L 59.762102 86.28 
" clip-path="url(#p7e985b9559)" style="fill: none; stroke: #cccccc; stroke-width: 0.8; stroke-linecap: round"/>
     </g>
     <g id="line2d_2"/>
     <g id="text_1">
      <!-- 2.5 -->
      <g style="fill: #262626" transform="translate(51.81054 640.11466) scale(0.1 -0.1)">
       <defs>
        <path id="DejaVuSans-32" d="M 1228 531 
L 3431 531 
L 3431 0 
L 469 0 
L 469 531 
Q 828 903 1448 1529 
Q 2069 2156 2228 2338 
Q 2531 2678 2651 2914 
Q 2772 3150 2772 3378 
Q 2772 3750 2511 3984 
Q 2250 4219 1831 4219 
Q 1534 4219 1204 4116 
Q 875 4013 500 3803 
L 500 4441 
Q 881 4594 1212 4672 
Q 1544 4750 1819 4750 
Q 2544 4750 2975 4387 
Q 3406 4025 3406 3419 
Q 3406 3131 3298 2873 
Q 3191 2616 2906 2266 
Q 2828 2175 2409 1742 
Q 1991 1309 1228 531 
z
" transform="scale(0.015625)"/>
        <path id="DejaVuSans-2e" d="M 684 794 
L 1344 794 
L 1344 0 
L 684 0 
L 684 794 
z
" transform="scale(0.015625)"/>
        <path id="DejaVuSans-35" d="M 691 4666 
L 3169 4666 
L 3169 4134 
L 1269 4134 
L 1269 2991 
Q 1406 3038 1543 3061 
Q 1681 3084 1819 3084 
Q 2600 3084 3056 2656 
Q 3513 2228 3513 1497 
Q 3513 744 3044 326 
Q 2575 -91 1722 -91 
Q 1428 -91 1123 -41 
Q 819 9 494 109 
L 494 744 
Q 775 591 1075 516 
Q 1375 441 1709 441 
Q 2250 441 2565 725 
Q 2881 1009 2881 1497 
Q 2881 1984 2565 2268 
Q 2250 2553 1709 2553 
Q 1456 2553 1204 2497 
Q 953 2441 691 2322 
L 691 4666 
z
" transform="scale(0.015625)"/>
       </defs>
       <use xlink:href="#DejaVuSans-32"/>
       <use xlink:href="#DejaVuSans-2e" x="63.623047"/>
       <use xlink:href="#DejaVuSans-35" x="95.410156"/>
      </g>
     </g>
    </g>
    <g id="xtick_2">
     <g id="line2d_3">
      <path d="M 137.569489 629.016222 
L 137.569489 86.28 
" clip-path="url(#p7e985b9559)" style="fill: none; stroke: #cccccc; stroke-width: 0.8; stroke-linecap: round"/>
     </g>
     <g id="line2d_4"/>
     <g id="text_2">
      <!-- 5.0 -->
      <g style="fill: #262626" transform="translate(129.617926 640.11466) scale(0.1 -0.1)">
       <defs>
        <path id="DejaVuSans-30" d="M 2034 4250 
Q 1547 4250 1301 3770 
Q 1056 3291 1056 2328 
Q 1056 1369 1301 889 
Q 1547 409 2034 409 
Q 2525 409 2770 889 
Q 3016 1369 3016 2328 
Q 3016 3291 2770 3770 
Q 2525 4250 2034 4250 
z
M 2034 4750 
Q 2819 4750 3233 4129 
Q 3647 3509 3647 2328 
Q 3647 1150 3233 529 
Q 2819 -91 2034 -91 
Q 1250 -91 836 529 
Q 422 1150 422 2328 
Q 422 3509 836 4129 
Q 1250 4750 2034 4750 
z
" transform="scale(0.015625)"/>
       </defs>
       <use xlink:href="#DejaVuSans-35"/>
       <use xlink:href="#DejaVuSans-2e" x="63.623047"/>
       <use xlink:href="#DejaVuSans-30" x="95.410156"/>
      </g>
     </g>
    </g>
    <g id="xtick_3">
     <g id="line2d_5">
      <path d="M 215.376875 629.016222 
L 215.376875 86.28 
" clip-path="url(#p7e985b9559)" style="fill: none; stroke: #cccccc; stroke-width: 0.8; stroke-linecap: round"/>
     </g>
     <g id="line2d_6"/>
     <g id="text_3">
      <!-- 7.5 -->
      <g style="fill: #262626" transform="translate(207.425312 640.11466) scale(0.1 -0.1)">
       <defs>
        <path id="DejaVuSans-37" d="M 525 4666 
L 3525 4666 
L 3525 4397 
L 1831 0 
L 1172 0 
L 2766 4134 
L 525 4134 
L 525 4666 
z
" transform="scale(0.015625)"/>
       </defs>
       <use xlink:href="#DejaVuSans-37"/>
       <use xlink:href="#DejaVuSans-2e" x="63.623047"/>
       <use xlink:href="#DejaVuSans-35" x="95.410156"/>
      </g>
     </g>
    </g>
    <g id="xtick_4">
     <g id="line2d_7">
      <path d="M 293.184261 629.016222 
L 293.184261 86.28 
" clip-path="url(#p7e985b9559)" style="fill: none; stroke: #cccccc; stroke-width: 0.8; stroke-linecap: round"/>
     </g>
     <g id="line2d_8"/>
     <g id="text_4">
      <!-- 10.0 -->
      <g style="fill: #262626" transform="translate(282.051449 640.11466) scale(0.1 -0.1)">
       <defs>
        <path id="DejaVuSans-31" d="M 794 531 
L 1825 531 
L 1825 4091 
L 703 3866 
L 703 4441 
L 1819 4666 
L 2450 4666 
L 2450 531 
L 3481 531 
L 3481 0 
L 794 0 
L 794 531 
z
" transform="scale(0.015625)"/>
       </defs>
       <use xlink:href="#DejaVuSans-31"/>
       <use xlink:href="#DejaVuSans-30" x="63.623047"/>
       <use xlink:href="#DejaVuSans-2e" x="127.246094"/>
       <use xlink:href="#DejaVuSans-30" x="159.033203"/>
      </g>
     </g>
    </g>
    <g id="xtick_5">
     <g id="line2d_9">
      <path d="M 370.991648 629.016222 
L 370.991648 86.28 
" clip-path="url(#p7e985b9559)" style="fill: none; stroke: #cccccc; stroke-width: 0.8; stroke-linecap: round"/>
     </g>
     <g id="line2d_10"/>
     <g id="text_5">
      <!-- 12.5 -->
      <g style="fill: #262626" transform="translate(359.858835 640.11466) scale(0.1 -0.1)">
       <use xlink:href="#DejaVuSans-31"/>
       <use xlink:href="#DejaVuSans-32" x="63.623047"/>
       <use xlink:href="#DejaVuSans-2e" x="127.246094"/>
       <use xlink:href="#DejaVuSans-35" x="159.033203"/>
      </g>
     </g>
    </g>
    <g id="xtick_6">
     <g id="line2d_11">
      <path d="M 448.799034 629.016222 
L 448.799034 86.28 
" clip-path="url(#p7e985b9559)" style="fill: none; stroke: #cccccc; stroke-width: 0.8; stroke-linecap: round"/>
     </g>
     <g id="line2d_12"/>
     <g id="text_6">
      <!-- 15.0 -->
      <g style="fill: #262626" transform="translate(437.666222 640.11466) scale(0.1 -0.1)">
       <use xlink:href="#DejaVuSans-31"/>
       <use xlink:href="#DejaVuSans-35" x="63.623047"/>
       <use xlink:href="#DejaVuSans-2e" x="127.246094"/>
       <use xlink:href="#DejaVuSans-30" x="159.033203"/>
      </g>
     </g>
    </g>
    <g id="xtick_7">
     <g id="line2d_13">
      <path d="M 526.60642 629.016222 
L 526.60642 86.28 
" clip-path="url(#p7e985b9559)" style="fill: none; stroke: #cccccc; stroke-width: 0.8; stroke-linecap: round"/>
     </g>
     <g id="line2d_14"/>
     <g id="text_7">
      <!-- 17.5 -->
      <g style="fill: #262626" transform="translate(515.473608 640.11466) scale(0.1 -0.1)">
       <use xlink:href="#DejaVuSans-31"/>
       <use xlink:href="#DejaVuSans-37" x="63.623047"/>
       <use xlink:href="#DejaVuSans-2e" x="127.246094"/>
       <use xlink:href="#DejaVuSans-35" x="159.033203"/>
      </g>
     </g>
    </g>
    <g id="xtick_8">
     <g id="line2d_15">
      <path d="M 604.413807 629.016222 
L 604.413807 86.28 
" clip-path="url(#p7e985b9559)" style="fill: none; stroke: #cccccc; stroke-width: 0.8; stroke-linecap: round"/>
     </g>
     <g id="line2d_16"/>
     <g id="text_8">
      <!-- 20.0 -->
      <g style="fill: #262626" transform="translate(593.280994 640.11466) scale(0.1 -0.1)">
       <use xlink:href="#DejaVuSans-32"/>
       <use xlink:href="#DejaVuSans-30" x="63.623047"/>
       <use xlink:href="#DejaVuSans-2e" x="127.246094"/>
       <use xlink:href="#DejaVuSans-30" x="159.033203"/>
      </g>
     </g>
    </g>
    <g id="xtick_9">
     <g id="line2d_17">
      <path d="M 682.221193 629.016222 
L 682.221193 86.28 
" clip-path="url(#p7e985b9559)" style="fill: none; stroke: #cccccc; stroke-width: 0.8; stroke-linecap: round"/>
     </g>
     <g id="line2d_18"/>
     <g id="text_9">
      <!-- 22.5 -->
      <g style="fill: #262626" transform="translate(671.088381 640.11466) scale(0.1 -0.1)">
       <use xlink:href="#DejaVuSans-32"/>
       <use xlink:href="#DejaVuSans-32" x="63.623047"/>
       <use xlink:href="#DejaVuSans-2e" x="127.246094"/>
       <use xlink:href="#DejaVuSans-35" x="159.033203"/>
      </g>
     </g>
    </g>
    <g id="text_10">
     <!-- Hora do Dia -->
     <g style="fill: #262626" transform="translate(350.968437 655.312472) scale(0.12 -0.12)">
      <defs>
       <path id="DejaVuSans-48" d="M 628 4666 
L 1259 4666 
L 1259 2753 
L 3553 2753 
L 3553 4666 
L 4184 4666 
L 4184 0 
L 3553 0 
L 3553 2222 
L 1259 2222 
L 1259 0 
L 628 0 
L 628 4666 
z
" transform="scale(0.015625)"/>
       <path id="DejaVuSans-6f" d="M 1959 3097 
Q 1497 3097 1228 2736 
Q 959 2375 959 1747 
Q 959 1119 1226 758 
Q 1494 397 1959 397 
Q 2419 397 2687 759 
Q 2956 1122 2956 1747 
Q 2956 2369 2687 2733 
Q 2419 3097 1959 3097 
z
M 1959 3584 
Q 2709 3584 3137 3096 
Q 3566 2609 3566 1747 
Q 3566 888 3137 398 
Q 2709 -91 1959 -91 
Q 1206 -91 779 398 
Q 353 888 353 1747 
Q 353 2609 779 3096 
Q 1206 3584 1959 3584 
z
" transform="scale(0.015625)"/>
       <path id="DejaVuSans-72" d="M 2631 2963 
Q 2534 3019 2420 3045 
Q 2306 3072 2169 3072 
Q 1681 3072 1420 2755 
Q 1159 2438 1159 1844 
L 1159 0 
L 581 0 
L 581 3500 
L 1159 3500 
L 1159 2956 
Q 1341 3275 1631 3429 
Q 1922 3584 2338 3584 
Q 2397 3584 2469 3576 
Q 2541 3569 2628 3553 
L 2631 2963 
z
" transform="scale(0.015625)"/>
       <path id="DejaVuSans-61" d="M 2194 1759 
Q 1497 1759 1228 1600 
Q 959 1441 959 1056 
Q 959 750 1161 570 
Q 1363 391 1709 391 
Q 2188 391 2477 730 
Q 2766 1069 2766 1631 
L 2766 1759 
L 2194 1759 
z
M 3341 1997 
L 3341 0 
L 2766 0 
L 2766 531 
Q 2569 213 2275 61 
Q 1981 -91 1556 -91 
Q 1019 -91 701 211 
Q 384 513 384 1019 
Q 384 1609 779 1909 
Q 1175 2209 1959 2209 
L 2766 2209 
L 2766 2266 
Q 2766 2663 2505 2880 
Q 2244 3097 1772 3097 
Q 1472 3097 1187 3025 
Q 903 2953 641 2809 
L 641 3341 
Q 956 3463 1253 3523 
Q 1550 3584 1831 3584 
Q 2591 3584 2966 3190 
Q 3341 2797 3341 1997 
z
" transform="scale(0.015625)"/>
       <path id="DejaVuSans-20" transform="scale(0.015625)"/>
       <path id="DejaVuSans-64" d="M 2906 2969 
L 2906 4863 
L 3481 4863 
L 3481 0 
L 2906 0 
L 2906 525 
Q 2725 213 2448 61 
Q 2172 -91 1784 -91 
Q 1150 -91 751 415 
Q 353 922 353 1747 
Q 353 2572 751 3078 
Q 1150 3584 1784 3584 
Q 2172 3584 2448 3432 
Q 2725 3281 2906 2969 
z
M 947 1747 
Q 947 1113 1208 752 
Q 1469 391 1925 391 
Q 2381 391 2643 752 
Q 2906 1113 2906 1747 
Q 2906 2381 2643 2742 
Q 2381 3103 1925 3103 
Q 1469 3103 1208 2742 
Q 947 2381 947 1747 
z
" transform="scale(0.015625)"/>
       <path id="DejaVuSans-44" d="M 1259 4147 
L 1259 519 
L 2022 519 
Q 2988 519 3436 956 
Q 3884 1394 3884 2338 
Q 3884 3275 3436 3711 
Q 2988 4147 2022 4147 
L 1259 4147 
z
M 628 4666 
L 1925 4666 
Q 3281 4666 3915 4102 
Q 4550 3538 4550 2338 
Q 4550 1131 3912 565 
Q 3275 0 1925 0 
L 628 0 
L 628 4666 
z
" transform="scale(0.015625)"/>
       <path id="DejaVuSans-69" d="M 603 3500 
L 1178 3500 
L 1178 0 
L 603 0 
L 603 3500 
z
M 603 4863 
L 1178 4863 
L 1178 4134 
L 603 4134 
L 603 4863 
z
" transform="scale(0.015625)"/>
      </defs>
      <use xlink:href="#DejaVuSans-48"/>
      <use xlink:href="#DejaVuSans-6f" x="75.195312"/>
      <use xlink:href="#DejaVuSans-72" x="136.376953"/>
      <use xlink:href="#DejaVuSans-61" x="177.490234"/>
      <use xlink:href="#DejaVuSans-20" x="238.769531"/>
      <use xlink:href="#DejaVuSans-64" x="270.556641"/>
      <use xlink:href="#DejaVuSans-6f" x="334.033203"/>
      <use xlink:href="#DejaVuSans-20" x="395.214844"/>
      <use xlink:href="#DejaVuSans-44" x="427.001953"/>
      <use xlink:href="#DejaVuSans-69" x="504.003906"/>
      <use xlink:href="#DejaVuSans-61" x="531.787109"/>
     </g>
    </g>
   </g>
   <g id="matplotlib.axis_2">
    <g id="ytick_1">
     <g id="line2d_19">
      <path d="M 44.200625 625.344623 
L 728.905625 625.344623 
" clip-path="url(#p7e985b9559)" style="fill: none; stroke: #cccccc; stroke-width: 0.8; stroke-linecap: round"/>
     </g>
     <g id="line2d_20"/>
     <g id="text_11">
      <!-- 0.4 -->
      <g style="fill: #262626" transform="translate(24.7975 629.143842) scale(0.1 -0.1)">
       <defs>
        <path id="DejaVuSans-34" d="M 2419 4116 
L 825 1625 
L 2419 1625 
L 2419 4116 
z
M 2253 4666 
L 3047 4666 
L 3047 1625 
L 3713 1625 
L 3713 1100 
L 3047 1100 
L 3047 0 
L 2419 0 
L 2419 1100 
L 313 1100 
L 313 1709 
L 2253 4666 
z
" transform="scale(0.015625)"/>
       </defs>
       <use xlink:href="#DejaVuSans-30"/>
       <use xlink:href="#DejaVuSans-2e" x="63.623047"/>
       <use xlink:href="#DejaVuSans-34" x="95.410156"/>
      </g>
     </g>
    </g>
    <g id="ytick_2">
     <g id="line2d_21">
      <path d="M 44.200625 552.339276 
L 728.905625 552.339276 
" clip-path="url(#p7e985b9559)" style="fill: none; stroke: #cccccc; stroke-width: 0.8; stroke-linecap: round"/>
     </g>
     <g id="line2d_22"/>
     <g id="text_12">
      <!-- 0.6 -->
      <g style="fill: #262626" transform="translate(24.7975 556.138495) scale(0.1 -0.1)">
       <defs>
        <path id="DejaVuSans-36" d="M 2113 2584 
Q 1688 2584 1439 2293 
Q 1191 2003 1191 1497 
Q 1191 994 1439 701 
Q 1688 409 2113 409 
Q 2538 409 2786 701 
Q 3034 994 3034 1497 
Q 3034 2003 2786 2293 
Q 2538 2584 2113 2584 
z
M 3366 4563 
L 3366 3988 
Q 3128 4100 2886 4159 
Q 2644 4219 2406 4219 
Q 1781 4219 1451 3797 
Q 1122 3375 1075 2522 
Q 1259 2794 1537 2939 
Q 1816 3084 2150 3084 
Q 2853 3084 3261 2657 
Q 3669 2231 3669 1497 
Q 3669 778 3244 343 
Q 2819 -91 2113 -91 
Q 1303 -91 875 529 
Q 447 1150 447 2328 
Q 447 3434 972 4092 
Q 1497 4750 2381 4750 
Q 2619 4750 2861 4703 
Q 3103 4656 3366 4563 
z
" transform="scale(0.015625)"/>
       </defs>
       <use xlink:href="#DejaVuSans-30"/>
       <use xlink:href="#DejaVuSans-2e" x="63.623047"/>
       <use xlink:href="#DejaVuSans-36" x="95.410156"/>
      </g>
     </g>
    </g>
    <g id="ytick_3">
     <g id="line2d_23">
      <path d="M 44.200625 479.333929 
L 728.905625 479.333929 
" clip-path="url(#p7e985b9559)" style="fill: none; stroke: #cccccc; stroke-width: 0.8; stroke-linecap: round"/>
     </g>
     <g id="line2d_24"/>
     <g id="text_13">
      <!-- 0.8 -->
      <g style="fill: #262626" transform="translate(24.7975 483.133148) scale(0.1 -0.1)">
       <defs>
        <path id="DejaVuSans-38" d="M 2034 2216 
Q 1584 2216 1326 1975 
Q 1069 1734 1069 1313 
Q 1069 891 1326 650 
Q 1584 409 2034 409 
Q 2484 409 2743 651 
Q 3003 894 3003 1313 
Q 3003 1734 2745 1975 
Q 2488 2216 2034 2216 
z
M 1403 2484 
Q 997 2584 770 2862 
Q 544 3141 544 3541 
Q 544 4100 942 4425 
Q 1341 4750 2034 4750 
Q 2731 4750 3128 4425 
Q 3525 4100 3525 3541 
Q 3525 3141 3298 2862 
Q 3072 2584 2669 2484 
Q 3125 2378 3379 2068 
Q 3634 1759 3634 1313 
Q 3634 634 3220 271 
Q 2806 -91 2034 -91 
Q 1263 -91 848 271 
Q 434 634 434 1313 
Q 434 1759 690 2068 
Q 947 2378 1403 2484 
z
M 1172 3481 
Q 1172 3119 1398 2916 
Q 1625 2713 2034 2713 
Q 2441 2713 2670 2916 
Q 2900 3119 2900 3481 
Q 2900 3844 2670 4047 
Q 2441 4250 2034 4250 
Q 1625 4250 1398 4047 
Q 1172 3844 1172 3481 
z
" transform="scale(0.015625)"/>
       </defs>
       <use xlink:href="#DejaVuSans-30"/>
       <use xlink:href="#DejaVuSans-2e" x="63.623047"/>
       <use xlink:href="#DejaVuSans-38" x="95.410156"/>
      </g>
     </g>
    </g>
    <g id="ytick_4">
     <g id="line2d_25">
      <path d="M 44.200625 406.328583 
L 728.905625 406.328583 
" clip-path="url(#p7e985b9559)" style="fill: none; stroke: #cccccc; stroke-width: 0.8; stroke-linecap: round"/>
     </g>
     <g id="line2d_26"/>
     <g id="text_14">
      <!-- 1.0 -->
      <g style="fill: #262626" transform="translate(24.7975 410.127801) scale(0.1 -0.1)">
       <use xlink:href="#DejaVuSans-31"/>
       <use xlink:href="#DejaVuSans-2e" x="63.623047"/>
       <use xlink:href="#DejaVuSans-30" x="95.410156"/>
      </g>
     </g>
    </g>
    <g id="ytick_5">
     <g id="line2d_27">
      <path d="M 44.200625 333.323236 
L 728.905625 333.323236 
" clip-path="url(#p7e985b9559)" style="fill: none; stroke: #cccccc; stroke-width: 0.8; stroke-linecap: round"/>
     </g>
     <g id="line2d_28"/>
     <g id="text_15">
      <!-- 1.2 -->
      <g style="fill: #262626" transform="translate(24.7975 337.122455) scale(0.1 -0.1)">
       <use xlink:href="#DejaVuSans-31"/>
       <use xlink:href="#DejaVuSans-2e" x="63.623047"/>
       <use xlink:href="#DejaVuSans-32" x="95.410156"/>
      </g>
     </g>
    </g>
    <g id="ytick_6">
     <g id="line2d_29">
      <path d="M 44.200625 260.317889 
L 728.905625 260.317889 
" clip-path="url(#p7e985b9559)" style="fill: none; stroke: #cccccc; stroke-width: 0.8; stroke-linecap: round"/>
     </g>
     <g id="line2d_30"/>
     <g id="text_16">
      <!-- 1.4 -->
      <g style="fill: #262626" transform="translate(24.7975 264.117108) scale(0.1 -0.1)">
       <use xlink:href="#DejaVuSans-31"/>
       <use xlink:href="#DejaVuSans-2e" x="63.623047"/>
       <use xlink:href="#DejaVuSans-34" x="95.410156"/>
      </g>
     </g>
    </g>
    <g id="ytick_7">
     <g id="line2d_31">
      <path d="M 44.200625 187.312542 
L 728.905625 187.312542 
" clip-path="url(#p7e985b9559)" style="fill: none; stroke: #cccccc; stroke-width: 0.8; stroke-linecap: round"/>
     </g>
     <g id="line2d_32"/>
     <g id="text_17">
      <!-- 1.6 -->
      <g style="fill: #262626" transform="translate(24.7975 191.111761) scale(0.1 -0.1)">
       <use xlink:href="#DejaVuSans-31"/>
       <use xlink:href="#DejaVuSans-2e" x="63.623047"/>
       <use xlink:href="#DejaVuSans-36" x="95.410156"/>
      </g>
     </g>
    </g>
    <g id="ytick_8">
     <g id="line2d_33">
      <path d="M 44.200625 114.307195 
L 728.905625 114.307195 
" clip-path="url(#p7e985b9559)" style="fill: none; stroke: #cccccc; stroke-width: 0.8; stroke-linecap: round"/>
     </g>
     <g id="line2d_34"/>
     <g id="text_18">
      <!-- 1.8 -->
      <g style="fill: #262626" transform="translate(24.7975 118.106414) scale(0.1 -0.1)">
       <use xlink:href="#DejaVuSans-31"/>
       <use xlink:href="#DejaVuSans-2e" x="63.623047"/>
       <use xlink:href="#DejaVuSans-38" x="95.410156"/>
      </g>
     </g>
    </g>
    <g id="text_19">
     <!-- Índice de Tráfego -->
     <g style="fill: #262626" transform="translate(18.301875 409.209674) rotate(-90) scale(0.12 -0.12)">
      <defs>
       <path id="DejaVuSans-cd" d="M 628 4666 
L 1259 4666 
L 1259 0 
L 628 0 
L 628 4666 
z
M 1116 5921 
L 1694 5921 
L 982 5096 
L 503 5096 
L 1116 5921 
z
" transform="scale(0.015625)"/>
       <path id="DejaVuSans-6e" d="M 3513 2113 
L 3513 0 
L 2938 0 
L 2938 2094 
Q 2938 2591 2744 2837 
Q 2550 3084 2163 3084 
Q 1697 3084 1428 2787 
Q 1159 2491 1159 1978 
L 1159 0 
L 581 0 
L 581 3500 
L 1159 3500 
L 1159 2956 
Q 1366 3272 1645 3428 
Q 1925 3584 2291 3584 
Q 2894 3584 3203 3211 
Q 3513 2838 3513 2113 
z
" transform="scale(0.015625)"/>
       <path id="DejaVuSans-63" d="M 3122 3366 
L 3122 2828 
Q 2878 2963 2633 3030 
Q 2388 3097 2138 3097 
Q 1578 3097 1268 2742 
Q 959 2388 959 1747 
Q 959 1106 1268 751 
Q 1578 397 2138 397 
Q 2388 397 2633 464 
Q 2878 531 3122 666 
L 3122 134 
Q 2881 22 2623 -34 
Q 2366 -91 2075 -91 
Q 1284 -91 818 406 
Q 353 903 353 1747 
Q 353 2603 823 3093 
Q 1294 3584 2113 3584 
Q 2378 3584 2631 3529 
Q 2884 3475 3122 3366 
z
" transform="scale(0.015625)"/>
       <path id="DejaVuSans-65" d="M 3597 1894 
L 3597 1613 
L 953 1613 
Q 991 1019 1311 708 
Q 1631 397 2203 397 
Q 2534 397 2845 478 
Q 3156 559 3463 722 
L 3463 178 
Q 3153 47 2828 -22 
Q 2503 -91 2169 -91 
Q 1331 -91 842 396 
Q 353 884 353 1716 
Q 353 2575 817 3079 
Q 1281 3584 2069 3584 
Q 2775 3584 3186 3129 
Q 3597 2675 3597 1894 
z
M 3022 2063 
Q 3016 2534 2758 2815 
Q 2500 3097 2075 3097 
Q 1594 3097 1305 2825 
Q 1016 2553 972 2059 
L 3022 2063 
z
" transform="scale(0.015625)"/>
       <path id="DejaVuSans-54" d="M -19 4666 
L 3928 4666 
L 3928 4134 
L 2272 4134 
L 2272 0 
L 1638 0 
L 1638 4134 
L -19 4134 
L -19 4666 
z
" transform="scale(0.015625)"/>
       <path id="DejaVuSans-e1" d="M 2194 1759 
Q 1497 1759 1228 1600 
Q 959 1441 959 1056 
Q 959 750 1161 570 
Q 1363 391 1709 391 
Q 2188 391 2477 730 
Q 2766 1069 2766 1631 
L 2766 1759 
L 2194 1759 
z
M 3341 1997 
L 3341 0 
L 2766 0 
L 2766 531 
Q 2569 213 2275 61 
Q 1981 -91 1556 -91 
Q 1019 -91 701 211 
Q 384 513 384 1019 
Q 384 1609 779 1909 
Q 1175 2209 1959 2209 
L 2766 2209 
L 2766 2266 
Q 2766 2663 2505 2880 
Q 2244 3097 1772 3097 
Q 1472 3097 1187 3025 
Q 903 2953 641 2809 
L 641 3341 
Q 956 3463 1253 3523 
Q 1550 3584 1831 3584 
Q 2591 3584 2966 3190 
Q 3341 2797 3341 1997 
z
M 2290 5119 
L 2912 5119 
L 1894 3944 
L 1415 3944 
L 2290 5119 
z
" transform="scale(0.015625)"/>
       <path id="DejaVuSans-66" d="M 2375 4863 
L 2375 4384 
L 1825 4384 
Q 1516 4384 1395 4259 
Q 1275 4134 1275 3809 
L 1275 3500 
L 2222 3500 
L 2222 3053 
L 1275 3053 
L 1275 0 
L 697 0 
L 697 3053 
L 147 3053 
L 147 3500 
L 697 3500 
L 697 3744 
Q 697 4328 969 4595 
Q 1241 4863 1831 4863 
L 2375 4863 
z
" transform="scale(0.015625)"/>
       <path id="DejaVuSans-67" d="M 2906 1791 
Q 2906 2416 2648 2759 
Q 2391 3103 1925 3103 
Q 1463 3103 1205 2759 
Q 947 2416 947 1791 
Q 947 1169 1205 825 
Q 1463 481 1925 481 
Q 2391 481 2648 825 
Q 2906 1169 2906 1791 
z
M 3481 434 
Q 3481 -459 3084 -895 
Q 2688 -1331 1869 -1331 
Q 1566 -1331 1297 -1286 
Q 1028 -1241 775 -1147 
L 775 -588 
Q 1028 -725 1275 -790 
Q 1522 -856 1778 -856 
Q 2344 -856 2625 -561 
Q 2906 -266 2906 331 
L 2906 616 
Q 2728 306 2450 153 
Q 2172 0 1784 0 
Q 1141 0 747 490 
Q 353 981 353 1791 
Q 353 2603 747 3093 
Q 1141 3584 1784 3584 
Q 2172 3584 2450 3431 
Q 2728 3278 2906 2969 
L 2906 3500 
L 3481 3500 
L 3481 434 
z
" transform="scale(0.015625)"/>
      </defs>
      <use xlink:href="#DejaVuSans-cd"/>
      <use xlink:href="#DejaVuSans-6e" x="29.492188"/>
      <use xlink:href="#DejaVuSans-64" x="92.871094"/>
      <use xlink:href="#DejaVuSans-69" x="156.347656"/>
      <use xlink:href="#DejaVuSans-63" x="184.130859"/>
      <use xlink:href="#DejaVuSans-65" x="239.111328"/>
      <use xlink:href="#DejaVuSans-20" x="300.634766"/>
      <use xlink:href="#DejaVuSans-64" x="332.421875"/>
      <use xlink:href="#DejaVuSans-65" x="395.898438"/>
      <use xlink:href="#DejaVuSans-20" x="457.421875"/>
      <use xlink:href="#DejaVuSans-54" x="489.208984"/>
      <use xlink:href="#DejaVuSans-72" x="535.542969"/>
      <use xlink:href="#DejaVuSans-e1" x="576.65625"/>
      <use xlink:href="#DejaVuSans-66" x="637.935547"/>
      <use xlink:href="#DejaVuSans-65" x="673.140625"/>
      <use xlink:href="#DejaVuSans-67" x="734.664062"/>
      <use xlink:href="#DejaVuSans-6f" x="798.140625"/>
     </g>
    </g>
   </g>
   <g id="patch_3">
    <path d="M 199.815398 629.016222 
L 262.061307 629.016222 
L 262.061307 86.28 
L 199.815398 86.28 
z
" clip-path="url(#p7e985b9559)" style="fill: #ffa500; opacity: 0.2; stroke: #ffa500; stroke-linejoin: miter"/>
   </g>
   <g id="patch_4">
    <path d="M 511.044943 629.016222 
L 573.290852 629.016222 
L 573.290852 86.28 
L 511.044943 86.28 
z
" clip-path="url(#p7e985b9559)" style="fill: #ffa500; opacity: 0.2; stroke: #ffa500; stroke-linejoin: miter"/>
   </g>
   <g id="line2d_35">
    <path d="M 75.32358 496.744615 
L 106.446534 560.8865 
L 137.569489 560.885901 
L 168.692443 348.683093 
L 199.815398 378.315163 
L 230.938352 131.444266 
L 262.061307 386.52369 
L 293.184261 423.244567 
L 324.307216 423.328964 
L 355.43017 397.496313 
L 386.553125 476.168426 
L 417.67608 469.292695 
L 448.799034 426.853581 
L 479.921989 443.299626 
L 511.044943 394.857715 
L 542.167898 110.949828 
L 573.290852 457.881443 
L 604.413807 352.828484 
L 635.536761 414.570021 
L 666.659716 549.874316 
L 697.78267 604.346394 
" clip-path="url(#p7e985b9559)" style="fill: none; stroke: #0000ff; stroke-width: 2; stroke-linecap: round"/>
   </g>
   <g id="line2d_36">
    <path d="M 75.32358 452.125065 
L 106.446534 450.034428 
L 137.569489 448.14879 
L 168.692443 450.570398 
L 199.815398 444.385475 
L 230.938352 427.465723 
L 262.061307 394.053381 
L 293.184261 390.740704 
L 324.307216 390.570431 
L 355.43017 419.191165 
L 386.553125 421.340698 
L 417.67608 423.783302 
L 448.799034 427.68049 
L 479.921989 432.454474 
L 511.044943 429.014908 
L 542.167898 423.29818 
L 573.290852 403.765791 
L 604.413807 394.867539 
L 635.536761 390.531224 
L 666.659716 419.653355 
L 697.78267 422.608778 
" clip-path="url(#p7e985b9559)" style="fill: none; stroke-dasharray: 7.4,3.2; stroke-dashoffset: 0; stroke: #ff0000; stroke-width: 2"/>
   </g>
   <g id="patch_5">
    <path d="M 44.200625 629.016222 
L 44.200625 86.28 
" style="fill: none; stroke: #cccccc; stroke-linejoin: miter; stroke-linecap: square"/>
   </g>
   <g id="patch_6">
    <path d="M 728.905625 629.016222 
L 728.905625 86.28 
" style="fill: none; stroke: #cccccc; stroke-linejoin: miter; stroke-linecap: square"/>
   </g>
   <g id="patch_7">
    <path d="M 44.200625 629.016222 
L 728.905625 629.016222 
" style="fill: none; stroke: #cccccc; stroke-linejoin: miter; stroke-linecap: square"/>
   </g>
   <g id="patch_8">
    <path d="M 44.200625 86.28 
L 728.905625 86.28 
" style="fill: none; stroke: #cccccc; stroke-linejoin: miter; stroke-linecap: square"/>
   </g>
   <g id="text_20">
    <!-- Pico da Manhã -->
    <g style="fill: #262626" transform="translate(194.642259 698.34997) scale(0.1 -0.1)">
     <defs>
      <path id="DejaVuSans-50" d="M 1259 4147 
L 1259 2394 
L 2053 2394 
Q 2494 2394 2734 2622 
Q 2975 2850 2975 3272 
Q 2975 3691 2734 3919 
Q 2494 4147 2053 4147 
L 1259 4147 
z
M 628 4666 
L 2053 4666 
Q 2838 4666 3239 4311 
Q 3641 3956 3641 3272 
Q 3641 2581 3239 2228 
Q 2838 1875 2053 1875 
L 1259 1875 
L 1259 0 
L 628 0 
L 628 4666 
z
" transform="scale(0.015625)"/>
      <path id="DejaVuSans-4d" d="M 628 4666 
L 1569 4666 
L 2759 1491 
L 3956 4666 
L 4897 4666 
L 4897 0 
L 4281 0 
L 4281 4097 
L 3078 897 
L 2444 897 
L 1241 4097 
L 1241 0 
L 628 0 
L 628 4666 
z
" transform="scale(0.015625)"/>
      <path id="DejaVuSans-68" d="M 3513 2113 
L 3513 0 
L 2938 0 
L 2938 2094 
Q 2938 2591 2744 2837 
Q 2550 3084 2163 3084 
Q 1697 3084 1428 2787 
Q 1159 2491 1159 1978 
L 1159 0 
L 581 0 
L 581 4863 
L 1159 4863 
L 1159 2956 
Q 1366 3272 1645 3428 
Q 1925 3584 2291 3584 
Q 2894 3584 3203 3211 
Q 3513 2838 3513 2113 
z
" transform="scale(0.015625)"/>
      <path id="DejaVuSans-e3" d="M 2194 1759 
Q 1497 1759 1228 1600 
Q 959 1441 959 1056 
Q 959 750 1161 570 
Q 1363 391 1709 391 
Q 2188 391 2477 730 
Q 2766 1069 2766 1631 
L 2766 1759 
L 2194 1759 
z
M 3341 1997 
L 3341 0 
L 2766 0 
L 2766 531 
Q 2569 213 2275 61 
Q 1981 -91 1556 -91 
Q 1019 -91 701 211 
Q 384 513 384 1019 
Q 384 1609 779 1909 
Q 1175 2209 1959 2209 
L 2766 2209 
L 2766 2266 
Q 2766 2663 2505 2880 
Q 2244 3097 1772 3097 
Q 1472 3097 1187 3025 
Q 903 2953 641 2809 
L 641 3341 
Q 956 3463 1253 3523 
Q 1550 3584 1831 3584 
Q 2591 3584 2966 3190 
Q 3341 2797 3341 1997 
z
M 1844 4281 
L 1665 4453 
Q 1597 4516 1545 4545 
Q 1494 4575 1453 4575 
Q 1334 4575 1278 4461 
Q 1222 4347 1215 4091 
L 825 4091 
Q 831 4513 990 4742 
Q 1150 4972 1434 4972 
Q 1553 4972 1653 4928 
Q 1753 4884 1869 4781 
L 2047 4609 
Q 2115 4547 2167 4517 
Q 2219 4488 2259 4488 
Q 2378 4488 2434 4602 
Q 2490 4716 2497 4972 
L 2887 4972 
Q 2881 4550 2721 4320 
Q 2562 4091 2278 4091 
Q 2159 4091 2059 4134 
Q 1959 4178 1844 4281 
z
" transform="scale(0.015625)"/>
     </defs>
     <use xlink:href="#DejaVuSans-50"/>
     <use xlink:href="#DejaVuSans-69" x="58.052734"/>
     <use xlink:href="#DejaVuSans-63" x="85.835938"/>
     <use xlink:href="#DejaVuSans-6f" x="140.816406"/>
     <use xlink:href="#DejaVuSans-20" x="201.998047"/>
     <use xlink:href="#DejaVuSans-64" x="233.785156"/>
     <use xlink:href="#DejaVuSans-61" x="297.261719"/>
     <use xlink:href="#DejaVuSans-20" x="358.541016"/>
     <use xlink:href="#DejaVuSans-4d" x="390.328125"/>
     <use xlink:href="#DejaVuSans-61" x="476.607422"/>
     <use xlink:href="#DejaVuSans-6e" x="537.886719"/>
     <use xlink:href="#DejaVuSans-68" x="601.265625"/>
     <use xlink:href="#DejaVuSans-e3" x="664.644531"/>
    </g>
   </g>
   <g id="text_21">
    <!-- Pico da Tarde -->
    <g style="fill: #262626" transform="translate(509.139773 698.34997) scale(0.1 -0.1)">
     <use xlink:href="#DejaVuSans-50"/>
     <use xlink:href="#DejaVuSans-69" x="58.052734"/>
     <use xlink:href="#DejaVuSans-63" x="85.835938"/>
     <use xlink:href="#DejaVuSans-6f" x="140.816406"/>
     <use xlink:href="#DejaVuSans-20" x="201.998047"/>
     <use xlink:href="#DejaVuSans-64" x="233.785156"/>
     <use xlink:href="#DejaVuSans-61" x="297.261719"/>
     <use xlink:href="#DejaVuSans-20" x="358.541016"/>
     <use xlink:href="#DejaVuSans-54" x="390.328125"/>
     <use xlink:href="#DejaVuSans-61" x="434.912109"/>
     <use xlink:href="#DejaVuSans-72" x="496.191406"/>
     <use xlink:href="#DejaVuSans-64" x="535.554688"/>
     <use xlink:href="#DejaVuSans-65" x="599.03125"/>
    </g>
   </g>
   <g id="text_22">
    <!-- Previsão de Tráfego ao Longo do Dia -->
    <g style="fill: #262626" transform="translate(258.963906 80.28) scale(0.14 -0.14)">
     <defs>
      <path id="DejaVuSans-76" d="M 191 3500 
L 800 3500 
L 1894 563 
L 2988 3500 
L 3597 3500 
L 2284 0 
L 1503 0 
L 191 3500 
z
" transform="scale(0.015625)"/>
      <path id="DejaVuSans-73" d="M 2834 3397 
L 2834 2853 
Q 2591 2978 2328 3040 
Q 2066 3103 1784 3103 
Q 1356 3103 1142 2972 
Q 928 2841 928 2578 
Q 928 2378 1081 2264 
Q 1234 2150 1697 2047 
L 1894 2003 
Q 2506 1872 2764 1633 
Q 3022 1394 3022 966 
Q 3022 478 2636 193 
Q 2250 -91 1575 -91 
Q 1294 -91 989 -36 
Q 684 19 347 128 
L 347 722 
Q 666 556 975 473 
Q 1284 391 1588 391 
Q 1994 391 2212 530 
Q 2431 669 2431 922 
Q 2431 1156 2273 1281 
Q 2116 1406 1581 1522 
L 1381 1569 
Q 847 1681 609 1914 
Q 372 2147 372 2553 
Q 372 3047 722 3315 
Q 1072 3584 1716 3584 
Q 2034 3584 2315 3537 
Q 2597 3491 2834 3397 
z
" transform="scale(0.015625)"/>
      <path id="DejaVuSans-4c" d="M 628 4666 
L 1259 4666 
L 1259 531 
L 3531 531 
L 3531 0 
L 628 0 
L 628 4666 
z
" transform="scale(0.015625)"/>
     </defs>
     <use xlink:href="#DejaVuSans-50"/>
     <use xlink:href="#DejaVuSans-72" x="58.552734"/>
     <use xlink:href="#DejaVuSans-65" x="97.416016"/>
     <use xlink:href="#DejaVuSans-76" x="158.939453"/>
     <use xlink:href="#DejaVuSans-69" x="218.119141"/>
     <use xlink:href="#DejaVuSans-73" x="245.902344"/>
     <use xlink:href="#DejaVuSans-e3" x="298.001953"/>
     <use xlink:href="#DejaVuSans-6f" x="359.28125"/>
     <use xlink:href="#DejaVuSans-20" x="420.462891"/>
     <use xlink:href="#DejaVuSans-64" x="452.25"/>
     <use xlink:href="#DejaVuSans-65" x="515.726562"/>
     <use xlink:href="#DejaVuSans-20" x="577.25"/>
     <use xlink:href="#DejaVuSans-54" x="609.037109"/>
     <use xlink:href="#DejaVuSans-72" x="655.371094"/>
     <use xlink:href="#DejaVuSans-e1" x="696.484375"/>
     <use xlink:href="#DejaVuSans-66" x="757.763672"/>
     <use xlink:href="#DejaVuSans-65" x="792.96875"/>
     <use xlink:href="#DejaVuSans-67" x="854.492188"/>
     <use xlink:href="#DejaVuSans-6f" x="917.96875"/>
     <use xlink:href="#DejaVuSans-20" x="979.150391"/>
     <use xlink:href="#DejaVuSans-61" x="1010.9375"/>
     <use xlink:href="#DejaVuSans-6f" x="1072.216797"/>
     <use xlink:href="#DejaVuSans-20" x="1133.398438"/>
     <use xlink:href="#DejaVuSans-4c" x="1165.185547"/>
     <use xlink:href="#DejaVuSans-6f" x="1219.148438"/>
     <use xlink:href="#DejaVuSans-6e" x="1280.330078"/>
     <use xlink:href="#DejaVuSans-67" x="1343.708984"/>
     <use xlink:href="#DejaVuSans-6f" x="1407.185547"/>
     <use xlink:href="#DejaVuSans-20" x="1468.367188"/>
     <use xlink:href="#DejaVuSans-64" x="1500.154297"/>
     <use xlink:href="#DejaVuSans-6f" x="1563.630859"/>
     <use xlink:href="#DejaVuSans-20" x="1624.8125"/>
     <use xlink:href="#DejaVuSans-44" x="1656.599609"/>
     <use xlink:href="#DejaVuSans-69" x="1733.601562"/>
     <use xlink:href="#DejaVuSans-61" x="1761.384766"/>
    </g>
   </g>
   <g id="legend_1">
    <g id="line2d_37">
     <path d="M 611.875937 99.778437 
L 621.875937 99.778437 
L 631.875937 99.778437 
" style="fill: none; stroke: #0000ff; stroke-width: 2; stroke-linecap: round"/>
    </g>
    <g id="text_23">
     <!-- Tráfego Real -->
     <g style="fill: #262626" transform="translate(639.875937 103.278437) scale(0.1 -0.1)">
      <defs>
       <path id="DejaVuSans-52" d="M 2841 2188 
Q 3044 2119 3236 1894 
Q 3428 1669 3622 1275 
L 4263 0 
L 3584 0 
L 2988 1197 
Q 2756 1666 2539 1819 
Q 2322 1972 1947 1972 
L 1259 1972 
L 1259 0 
L 628 0 
L 628 4666 
L 2053 4666 
Q 2853 4666 3247 4331 
Q 3641 3997 3641 3322 
Q 3641 2881 3436 2590 
Q 3231 2300 2841 2188 
z
M 1259 4147 
L 1259 2491 
L 2053 2491 
Q 2509 2491 2742 2702 
Q 2975 2913 2975 3322 
Q 2975 3731 2742 3939 
Q 2509 4147 2053 4147 
L 1259 4147 
z
" transform="scale(0.015625)"/>
       <path id="DejaVuSans-6c" d="M 603 4863 
L 1178 4863 
L 1178 0 
L 603 0 
L 603 4863 
z
" transform="scale(0.015625)"/>
      </defs>
      <use xlink:href="#DejaVuSans-54"/>
      <use xlink:href="#DejaVuSans-72" x="46.333984"/>
      <use xlink:href="#DejaVuSans-e1" x="87.447266"/>
      <use xlink:href="#DejaVuSans-66" x="148.726562"/>
      <use xlink:href="#DejaVuSans-65" x="183.931641"/>
      <use xlink:href="#DejaVuSans-67" x="245.455078"/>
      <use xlink:href="#DejaVuSans-6f" x="308.931641"/>
      <use xlink:href="#DejaVuSans-20" x="370.113281"/>
      <use xlink:href="#DejaVuSans-52" x="401.900391"/>
      <use xlink:href="#DejaVuSans-65" x="466.882812"/>
      <use xlink:href="#DejaVuSans-61" x="528.40625"/>
      <use xlink:href="#DejaVuSans-6c" x="589.685547"/>
     </g>
    </g>
    <g id="line2d_38">
     <path d="M 611.875937 114.856562 
L 621.875937 114.856562 
L 631.875937 114.856562 
" style="fill: none; stroke-dasharray: 7.4,3.2; stroke-dashoffset: 0; stroke: #ff0000; stroke-width: 2"/>
    </g>
    <g id="text_24">
     <!-- Tráfego Previsto -->
     <g style="fill: #262626" transform="translate(639.875937 118.356562) scale(0.1 -0.1)">
      <defs>
       <path id="DejaVuSans-74" d="M 1172 4494 
L 1172 3500 
L 2356 3500 
L 2356 3053 
L 1172 3053 
L 1172 1153 
Q 1172 725 1289 603 
Q 1406 481 1766 481 
L 2356 481 
L 2356 0 
L 1766 0 
Q 1100 0 847 248 
Q 594 497 594 1153 
L 594 3053 
L 172 3053 
L 172 3500 
L 594 3500 
L 594 4494 
L 1172 4494 
z
" transform="scale(0.015625)"/>
      </defs>
      <use xlink:href="#DejaVuSans-54"/>
      <use xlink:href="#DejaVuSans-72" x="46.333984"/>
      <use xlink:href="#DejaVuSans-e1" x="87.447266"/>
      <use xlink:href="#DejaVuSans-66" x="148.726562"/>
      <use xlink:href="#DejaVuSans-65" x="183.931641"/>
      <use xlink:href="#DejaVuSans-67" x="245.455078"/>
      <use xlink:href="#DejaVuSans-6f" x="308.931641"/>
      <use xlink:href="#DejaVuSans-20" x="370.113281"/>
      <use xlink:href="#DejaVuSans-50" x="401.900391"/>
      <use xlink:href="#DejaVuSans-72" x="460.453125"/>
      <use xlink:href="#DejaVuSans-65" x="499.316406"/>
      <use xlink:href="#DejaVuSans-76" x="560.839844"/>
      <use xlink:href="#DejaVuSans-69" x="620.019531"/>
      <use xlink:href="#DejaVuSans-73" x="647.802734"/>
      <use xlink:href="#DejaVuSans-74" x="699.902344"/>
      <use xlink:href="#DejaVuSans-6f" x="739.111328"/>
     </g>
    </g>
   </g>
  </g>
  <g id="axes_2">
   <g id="LineCollection_1">
    <path d="M 799.122175 581.919277 
L 986.803584 542.164492 
" clip-path="url(#p7868e2a981)" style="fill: none; stroke: #ff0000; stroke-width: 3"/>
    <path d="M 986.803584 542.164492 
L 935.989908 506.821106 
" clip-path="url(#p7868e2a981)" style="fill: none; stroke: #ff0000; stroke-width: 3"/>
    <path d="M 935.989908 506.821106 
L 1121.589252 476.174516 
" clip-path="url(#p7868e2a981)" style="fill: none; stroke: #ff0000; stroke-width: 3"/>
    <path d="M 935.989908 506.821106 
L 1311.423068 416.913352 
" clip-path="url(#p7868e2a981)" style="fill: none; stroke: #808080"/>
    <path d="M 1121.589252 476.174516 
L 1364.994075 465.676852 
" clip-path="url(#p7868e2a981)" style="fill: none; stroke: #808080"/>
    <path d="M 1121.589252 476.174516 
L 1311.423068 416.913352 
" clip-path="url(#p7868e2a981)" style="fill: none; stroke: #ff0000; stroke-width: 3"/>
    <path d="M 1364.994075 465.676852 
L 1311.423068 416.913352 
" clip-path="url(#p7868e2a981)" style="fill: none; stroke: #808080"/>
    <path d="M 1311.423068 416.913352 
L 1030.435538 349.452366 
" clip-path="url(#p7868e2a981)" style="fill: none; stroke: #ff0000; stroke-width: 3"/>
    <path d="M 1311.423068 416.913352 
L 1002.644171 259.251062 
" clip-path="url(#p7868e2a981)" style="fill: none; stroke: #808080"/>
    <path d="M 1030.435538 349.452366 
L 1002.644171 259.251062 
" clip-path="url(#p7868e2a981)" style="fill: none; stroke: #808080"/>
    <path d="M 1030.435538 349.452366 
L 1062.651296 182.231771 
" clip-path="url(#p7868e2a981)" style="fill: none; stroke: #ff0000; stroke-width: 3"/>
    <path d="M 1002.644171 259.251062 
L 1062.651296 182.231771 
" clip-path="url(#p7868e2a981)" style="fill: none; stroke: #808080"/>
    <path d="M 1062.651296 182.231771 
L 1285.235455 133.376945 
" clip-path="url(#p7868e2a981)" style="fill: none; stroke: #ff0000; stroke-width: 3"/>
   </g>
   <g id="text_25">
    <g id="patch_9">
     <path d="M 886.181475 570.555661 
L 903.260492 565.56765 
Q 905.564251 564.894826 904.891427 562.591067 
L 902.720867 555.159043 
Q 902.048043 552.855283 899.744284 553.528108 
L 882.665267 558.516119 
Q 880.361508 559.188943 881.034332 561.492702 
L 883.204892 568.924726 
Q 883.877716 571.228486 886.181475 570.555661 
z
" clip-path="url(#p7868e2a981)" style="fill: #ffffff; stroke: #ffffff; stroke-linejoin: miter"/>
    </g>
    <g clip-path="url(#p7868e2a981)">
     <!-- 8.3h -->
     <g transform="translate(885.042229 566.654869) rotate(-16.280705) scale(0.08 -0.08)">
      <defs>
       <path id="DejaVuSans-33" d="M 2597 2516 
Q 3050 2419 3304 2112 
Q 3559 1806 3559 1356 
Q 3559 666 3084 287 
Q 2609 -91 1734 -91 
Q 1441 -91 1130 -33 
Q 819 25 488 141 
L 488 750 
Q 750 597 1062 519 
Q 1375 441 1716 441 
Q 2309 441 2620 675 
Q 2931 909 2931 1356 
Q 2931 1769 2642 2001 
Q 2353 2234 1838 2234 
L 1294 2234 
L 1294 2753 
L 1863 2753 
Q 2328 2753 2575 2939 
Q 2822 3125 2822 3475 
Q 2822 3834 2567 4026 
Q 2313 4219 1838 4219 
Q 1578 4219 1281 4162 
Q 984 4106 628 3988 
L 628 4550 
Q 988 4650 1302 4700 
Q 1616 4750 1894 4750 
Q 2613 4750 3031 4423 
Q 3450 4097 3450 3541 
Q 3450 3153 3228 2886 
Q 3006 2619 2597 2516 
z
" transform="scale(0.015625)"/>
      </defs>
      <use xlink:href="#DejaVuSans-38"/>
      <use xlink:href="#DejaVuSans-2e" x="63.623047"/>
      <use xlink:href="#DejaVuSans-33" x="95.410156"/>
      <use xlink:href="#DejaVuSans-68" x="159.033203"/>
     </g>
    </g>
   </g>
   <g id="text_26">
    <g id="patch_10">
     <path d="M 950.635223 522.8614 
L 963.476846 535.176667 
Q 965.20903 536.837852 966.870215 535.105667 
L 972.229269 529.517568 
Q 973.890454 527.785383 972.158269 526.124198 
L 959.316647 513.808931 
Q 957.584463 512.147746 955.923277 513.87993 
L 950.564224 519.46803 
Q 948.903039 521.200215 950.635223 522.8614 
z
" clip-path="url(#p7868e2a981)" style="fill: #ffffff; stroke: #ffffff; stroke-linejoin: miter"/>
    </g>
    <g clip-path="url(#p7868e2a981)">
     <!-- 5.4h -->
     <g transform="translate(953.447991 519.928414) rotate(-316.19862) scale(0.08 -0.08)">
      <use xlink:href="#DejaVuSans-35"/>
      <use xlink:href="#DejaVuSans-2e" x="63.623047"/>
      <use xlink:href="#DejaVuSans-34" x="95.410156"/>
      <use xlink:href="#DejaVuSans-68" x="159.033203"/>
     </g>
    </g>
   </g>
   <g id="text_27">
    <g id="patch_11">
     <path d="M 1021.507436 499.587448 
L 1038.856004 495.637733 
Q 1041.196123 495.104962 1040.663352 492.764844 
L 1038.944613 485.215523 
Q 1038.411843 482.875404 1036.071724 483.408175 
L 1018.723156 487.35789 
Q 1016.383037 487.89066 1016.915808 490.230779 
L 1018.634547 497.780099 
Q 1019.167317 500.120218 1021.507436 499.587448 
z
" clip-path="url(#p7868e2a981)" style="fill: #ffffff; stroke: #ffffff; stroke-linejoin: miter"/>
    </g>
    <g clip-path="url(#p7868e2a981)">
     <!-- 7.4h -->
     <g transform="translate(1020.605334 495.62509) rotate(-12.825803) scale(0.08 -0.08)">
      <use xlink:href="#DejaVuSans-37"/>
      <use xlink:href="#DejaVuSans-2e" x="63.623047"/>
      <use xlink:href="#DejaVuSans-34" x="95.410156"/>
      <use xlink:href="#DejaVuSans-68" x="159.033203"/>
     </g>
    </g>
   </g>
   <g id="text_28">
    <g id="patch_12">
     <path d="M 1114.808433 471.409524 
L 1136.537096 464.234986 
Q 1138.816078 463.482494 1138.063586 461.203513 
L 1135.636017 453.851424 
Q 1134.883525 451.572443 1132.604543 452.324934 
L 1110.87588 459.499472 
Q 1108.596899 460.251964 1109.34939 462.530945 
L 1111.77696 469.883034 
Q 1112.529452 472.162016 1114.808433 471.409524 
z
" clip-path="url(#p7868e2a981)" style="fill: #ffffff; stroke: #ffffff; stroke-linejoin: miter"/>
    </g>
    <g clip-path="url(#p7868e2a981)">
     <!-- 18.5h -->
     <g transform="translate(1113.534292 467.550686) rotate(-18.272589) scale(0.08 -0.08)">
      <use xlink:href="#DejaVuSans-31"/>
      <use xlink:href="#DejaVuSans-38" x="63.623047"/>
      <use xlink:href="#DejaVuSans-2e" x="127.246094"/>
      <use xlink:href="#DejaVuSans-35" x="159.033203"/>
      <use xlink:href="#DejaVuSans-68" x="222.65625"/>
     </g>
    </g>
   </g>
   <g id="text_29">
    <g id="patch_13">
     <path d="M 1234.783362 477.713956 
L 1252.544487 476.657795 
Q 1254.940255 476.515331 1254.797791 474.119563 
L 1254.338197 466.390716 
Q 1254.195733 463.994948 1251.799965 464.137412 
L 1234.03884 465.193573 
Q 1231.643072 465.336037 1231.785536 467.731805 
L 1232.24513 475.460652 
Q 1232.387594 477.85642 1234.783362 477.713956 
z
" clip-path="url(#p7868e2a981)" style="fill: #ffffff; stroke: #ffffff; stroke-linejoin: miter"/>
    </g>
    <g clip-path="url(#p7868e2a981)">
     <!-- 7.7h -->
     <g transform="translate(1234.542138 473.657372) rotate(-3.403074) scale(0.08 -0.08)">
      <use xlink:href="#DejaVuSans-37"/>
      <use xlink:href="#DejaVuSans-2e" x="63.623047"/>
      <use xlink:href="#DejaVuSans-37" x="95.410156"/>
      <use xlink:href="#DejaVuSans-68" x="159.033203"/>
     </g>
    </g>
   </g>
   <g id="text_30">
    <g id="patch_14">
     <path d="M 1208.476403 456.8276 
L 1229.494641 447.780918 
Q 1231.699111 446.832069 1230.750262 444.627599 
L 1227.689236 437.515889 
Q 1226.740387 435.31142 1224.535917 436.260268 
L 1203.517678 445.30695 
Q 1201.313209 446.255799 1202.262058 448.460269 
L 1205.323084 455.571979 
Q 1206.271933 457.776449 1208.476403 456.8276 
z
" clip-path="url(#p7868e2a981)" style="fill: #ffffff; stroke: #ffffff; stroke-linejoin: miter"/>
    </g>
    <g clip-path="url(#p7868e2a981)">
     <!-- 10.9h -->
     <g transform="translate(1206.869784 453.094928) rotate(-23.288037) scale(0.08 -0.08)">
      <defs>
       <path id="DejaVuSans-39" d="M 703 97 
L 703 672 
Q 941 559 1184 500 
Q 1428 441 1663 441 
Q 2288 441 2617 861 
Q 2947 1281 2994 2138 
Q 2813 1869 2534 1725 
Q 2256 1581 1919 1581 
Q 1219 1581 811 2004 
Q 403 2428 403 3163 
Q 403 3881 828 4315 
Q 1253 4750 1959 4750 
Q 2769 4750 3195 4129 
Q 3622 3509 3622 2328 
Q 3622 1225 3098 567 
Q 2575 -91 1691 -91 
Q 1453 -91 1209 -44 
Q 966 3 703 97 
z
M 1959 2075 
Q 2384 2075 2632 2365 
Q 2881 2656 2881 3163 
Q 2881 3666 2632 3958 
Q 2384 4250 1959 4250 
Q 1534 4250 1286 3958 
Q 1038 3666 1038 3163 
Q 1038 2656 1286 2365 
Q 1534 2075 1959 2075 
z
" transform="scale(0.015625)"/>
      </defs>
      <use xlink:href="#DejaVuSans-31"/>
      <use xlink:href="#DejaVuSans-30" x="63.623047"/>
      <use xlink:href="#DejaVuSans-2e" x="127.246094"/>
      <use xlink:href="#DejaVuSans-39" x="159.033203"/>
      <use xlink:href="#DejaVuSans-68" x="222.65625"/>
     </g>
    </g>
   </g>
   <g id="text_31">
    <g id="patch_15">
     <path d="M 1327.760082 438.245365 
L 1338.847627 452.160803 
Q 1340.343207 454.037832 1342.220237 452.542252 
L 1348.275612 447.717449 
Q 1350.152642 446.221868 1348.657062 444.344839 
L 1337.569517 430.429401 
Q 1336.073937 428.552372 1334.196907 430.047952 
L 1328.141531 434.872756 
Q 1326.264502 436.368336 1327.760082 438.245365 
z
" clip-path="url(#p7868e2a981)" style="fill: #ffffff; stroke: #ffffff; stroke-linejoin: miter"/>
    </g>
    <g clip-path="url(#p7868e2a981)">
     <!-- 8.0h -->
     <g transform="translate(1330.938323 435.713005) rotate(-308.547144) scale(0.08 -0.08)">
      <use xlink:href="#DejaVuSans-38"/>
      <use xlink:href="#DejaVuSans-2e" x="63.623047"/>
      <use xlink:href="#DejaVuSans-30" x="95.410156"/>
      <use xlink:href="#DejaVuSans-68" x="159.033203"/>
     </g>
    </g>
   </g>
   <g id="text_32">
    <g id="patch_16">
     <path d="M 1158.096909 385.54092 
L 1179.820145 392.731875 
Q 1182.098557 393.486088 1182.852771 391.207676 
L 1185.285895 383.857424 
Q 1186.040109 381.579012 1183.761697 380.824798 
L 1162.038461 373.633843 
Q 1159.760049 372.87963 1159.005835 375.158042 
L 1156.572711 382.508294 
Q 1155.818497 384.786707 1158.096909 385.54092 
z
" clip-path="url(#p7868e2a981)" style="fill: #ffffff; stroke: #ffffff; stroke-linejoin: miter"/>
    </g>
    <g clip-path="url(#p7868e2a981)">
     <!-- 13.2h -->
     <g transform="translate(1159.373966 381.683046) rotate(-341.684117) scale(0.08 -0.08)">
      <use xlink:href="#DejaVuSans-31"/>
      <use xlink:href="#DejaVuSans-33" x="63.623047"/>
      <use xlink:href="#DejaVuSans-2e" x="127.246094"/>
      <use xlink:href="#DejaVuSans-32" x="159.033203"/>
      <use xlink:href="#DejaVuSans-68" x="222.65625"/>
     </g>
    </g>
   </g>
   <g id="text_33">
    <g id="patch_17">
     <path d="M 1144.068124 336.623887 
L 1162.778913 349.796403 
Q 1164.741369 351.177984 1166.12295 349.215529 
L 1170.57999 342.884564 
Q 1171.961571 340.922109 1169.999115 339.540527 
L 1151.288326 326.368011 
Q 1149.32587 324.98643 1147.944289 326.948886 
L 1143.48725 333.27985 
Q 1142.105668 335.242306 1144.068124 336.623887 
z
" clip-path="url(#p7868e2a981)" style="fill: #ffffff; stroke: #ffffff; stroke-linejoin: miter"/>
    </g>
    <g clip-path="url(#p7868e2a981)">
     <!-- 31.1h -->
     <g transform="translate(1146.407458 333.301) rotate(-324.854209) scale(0.08 -0.08)">
      <use xlink:href="#DejaVuSans-33"/>
      <use xlink:href="#DejaVuSans-31" x="63.623047"/>
      <use xlink:href="#DejaVuSans-2e" x="127.246094"/>
      <use xlink:href="#DejaVuSans-31" x="159.033203"/>
      <use xlink:href="#DejaVuSans-68" x="222.65625"/>
     </g>
    </g>
   </g>
   <g id="text_34">
    <g id="patch_18">
     <path d="M 1007.924421 294.553496 
L 1012.91468 316.885225 
Q 1013.438076 319.227458 1015.780309 318.704061 
L 1023.336451 317.015562 
Q 1025.678684 316.492166 1025.155288 314.149933 
L 1020.165029 291.818204 
Q 1019.641633 289.475971 1017.2994 289.999367 
L 1009.743258 291.687866 
Q 1007.401025 292.211262 1007.924421 294.553496 
z
" clip-path="url(#p7868e2a981)" style="fill: #ffffff; stroke: #ffffff; stroke-linejoin: miter"/>
    </g>
    <g clip-path="url(#p7868e2a981)">
     <!-- 18.4h -->
     <g transform="translate(1011.890359 293.667265) rotate(-282.596397) scale(0.08 -0.08)">
      <use xlink:href="#DejaVuSans-31"/>
      <use xlink:href="#DejaVuSans-38" x="63.623047"/>
      <use xlink:href="#DejaVuSans-2e" x="127.246094"/>
      <use xlink:href="#DejaVuSans-34" x="159.033203"/>
      <use xlink:href="#DejaVuSans-68" x="222.65625"/>
     </g>
    </g>
   </g>
   <g id="text_35">
    <g id="patch_19">
     <path d="M 1051.171052 278.041076 
L 1054.337607 255.378734 
Q 1054.669727 253.001825 1052.292818 252.669705 
L 1044.62481 251.598273 
Q 1042.247901 251.266153 1041.915782 253.643062 
L 1038.749227 276.305404 
Q 1038.417107 278.682313 1040.794016 279.014433 
L 1048.462024 280.085865 
Q 1050.838933 280.417985 1051.171052 278.041076 
z
" clip-path="url(#p7868e2a981)" style="fill: #ffffff; stroke: #ffffff; stroke-linejoin: miter"/>
    </g>
    <g clip-path="url(#p7868e2a981)">
     <!-- 24.2h -->
     <g transform="translate(1047.146401 277.478721) rotate(-82.045698) scale(0.08 -0.08)">
      <use xlink:href="#DejaVuSans-32"/>
      <use xlink:href="#DejaVuSans-34" x="63.623047"/>
      <use xlink:href="#DejaVuSans-2e" x="127.246094"/>
      <use xlink:href="#DejaVuSans-32" x="159.033203"/>
      <use xlink:href="#DejaVuSans-68" x="222.65625"/>
     </g>
    </g>
   </g>
   <g id="text_36">
    <g id="patch_20">
     <path d="M 1032.478898 233.787576 
L 1043.736264 213.865716 
Q 1044.916978 211.776239 1042.827501 210.595525 
L 1036.08676 206.786494 
Q 1033.997283 205.60578 1032.816569 207.695258 
L 1021.559203 227.617118 
Q 1020.378489 229.706595 1022.467967 230.887309 
L 1029.208707 234.69634 
Q 1031.298185 235.877054 1032.478898 233.787576 
z
" clip-path="url(#p7868e2a981)" style="fill: #ffffff; stroke: #ffffff; stroke-linejoin: miter"/>
    </g>
    <g clip-path="url(#p7868e2a981)">
     <!-- 11.8h -->
     <g transform="translate(1028.940934 231.788358) rotate(-60.530249) scale(0.08 -0.08)">
      <use xlink:href="#DejaVuSans-31"/>
      <use xlink:href="#DejaVuSans-31" x="63.623047"/>
      <use xlink:href="#DejaVuSans-2e" x="127.246094"/>
      <use xlink:href="#DejaVuSans-38" x="159.033203"/>
      <use xlink:href="#DejaVuSans-68" x="222.65625"/>
     </g>
    </g>
   </g>
   <g id="text_37">
    <g id="patch_21">
     <path d="M 1164.809098 167.120782 
L 1186.710651 160.492751 
Q 1189.007766 159.797579 1188.312594 157.500464 
L 1186.06994 150.089877 
Q 1185.374768 147.792762 1183.077653 148.487934 
L 1161.1761 155.115965 
Q 1158.878986 155.811137 1159.574158 158.108252 
L 1161.816812 165.51884 
Q 1162.511984 167.815954 1164.809098 167.120782 
z
" clip-path="url(#p7868e2a981)" style="fill: #ffffff; stroke: #ffffff; stroke-linejoin: miter"/>
    </g>
    <g clip-path="url(#p7868e2a981)">
     <!-- 12.1h -->
     <g transform="translate(1163.632013 163.231241) rotate(-16.837304) scale(0.08 -0.08)">
      <use xlink:href="#DejaVuSans-31"/>
      <use xlink:href="#DejaVuSans-32" x="63.623047"/>
      <use xlink:href="#DejaVuSans-2e" x="127.246094"/>
      <use xlink:href="#DejaVuSans-31" x="159.033203"/>
      <use xlink:href="#DejaVuSans-68" x="222.65625"/>
     </g>
    </g>
   </g>
   <g id="PathCollection_1">
    <defs>
     <path id="C0_0_d93095e09b" d="M 0 27.386128 
C 7.262886 27.386128 14.229281 24.500553 19.364917 19.364917 
C 24.500553 14.229281 27.386128 7.262886 27.386128 -0 
C 27.386128 -7.262886 24.500553 -14.229281 19.364917 -19.364917 
C 14.229281 -24.500553 7.262886 -27.386128 0 -27.386128 
C -7.262886 -27.386128 -14.229281 -24.500553 -19.364917 -19.364917 
C -24.500553 -14.229281 -27.386128 -7.262886 -27.386128 0 
C -27.386128 7.262886 -24.500553 14.229281 -19.364917 19.364917 
C -14.229281 24.500553 -7.262886 27.386128 0 27.386128 
z
"/>
    </defs>
    <g clip-path="url(#p7868e2a981)">
     <use xlink:href="#C0_0_d93095e09b" x="799.122175" y="581.919277" style="fill: #ffd700; stroke: #ffd700"/>
    </g>
    <g clip-path="url(#p7868e2a981)">
     <use xlink:href="#C0_0_d93095e09b" x="986.803584" y="542.164492" style="fill: #90ee90; stroke: #90ee90"/>
    </g>
    <g clip-path="url(#p7868e2a981)">
     <use xlink:href="#C0_0_d93095e09b" x="935.989908" y="506.821106" style="fill: #add8e6; stroke: #add8e6"/>
    </g>
    <g clip-path="url(#p7868e2a981)">
     <use xlink:href="#C0_0_d93095e09b" x="1121.589252" y="476.174516" style="fill: #90ee90; stroke: #90ee90"/>
    </g>
    <g clip-path="url(#p7868e2a981)">
     <use xlink:href="#C0_0_d93095e09b" x="1364.994075" y="465.676852" style="fill: #ffffff; stroke: #ffffff"/>
    </g>
    <g clip-path="url(#p7868e2a981)">
     <use xlink:href="#C0_0_d93095e09b" x="1311.423068" y="416.913352" style="fill: #add8e6; stroke: #add8e6"/>
    </g>
    <g clip-path="url(#p7868e2a981)">
     <use xlink:href="#C0_0_d93095e09b" x="1030.435538" y="349.452366" style="fill: #add8e6; stroke: #add8e6"/>
    </g>
    <g clip-path="url(#p7868e2a981)">
     <use xlink:href="#C0_0_d93095e09b" x="1002.644171" y="259.251062" style="fill: #ffffff; stroke: #ffffff"/>
    </g>
    <g clip-path="url(#p7868e2a981)">
     <use xlink:href="#C0_0_d93095e09b" x="1062.651296" y="182.231771" style="fill: #90ee90; stroke: #90ee90"/>
    </g>
    <g clip-path="url(#p7868e2a981)">
     <use xlink:href="#C0_0_d93095e09b" x="1285.235455" y="133.376945" style="fill: #ffd700; stroke: #ffd700"/>
    </g>
   </g>
   <g id="text_38">
    <g clip-path="url(#p7868e2a981)">
     <!-- Porto Alegre -->
     <g transform="translate(763.579987 584.63959) scale(0.1 -0.1)">
      <defs>
       <path id="DejaVuSans-Bold-50" d="M 588 4666 
L 2584 4666 
Q 3475 4666 3951 4270 
Q 4428 3875 4428 3144 
Q 4428 2409 3951 2014 
Q 3475 1619 2584 1619 
L 1791 1619 
L 1791 0 
L 588 0 
L 588 4666 
z
M 1791 3794 
L 1791 2491 
L 2456 2491 
Q 2806 2491 2997 2661 
Q 3188 2831 3188 3144 
Q 3188 3456 2997 3625 
Q 2806 3794 2456 3794 
L 1791 3794 
z
" transform="scale(0.015625)"/>
       <path id="DejaVuSans-Bold-6f" d="M 2203 2784 
Q 1831 2784 1636 2517 
Q 1441 2250 1441 1747 
Q 1441 1244 1636 976 
Q 1831 709 2203 709 
Q 2569 709 2762 976 
Q 2956 1244 2956 1747 
Q 2956 2250 2762 2517 
Q 2569 2784 2203 2784 
z
M 2203 3584 
Q 3106 3584 3614 3096 
Q 4122 2609 4122 1747 
Q 4122 884 3614 396 
Q 3106 -91 2203 -91 
Q 1297 -91 786 396 
Q 275 884 275 1747 
Q 275 2609 786 3096 
Q 1297 3584 2203 3584 
z
" transform="scale(0.015625)"/>
       <path id="DejaVuSans-Bold-72" d="M 3138 2547 
Q 2991 2616 2845 2648 
Q 2700 2681 2553 2681 
Q 2122 2681 1889 2404 
Q 1656 2128 1656 1613 
L 1656 0 
L 538 0 
L 538 3500 
L 1656 3500 
L 1656 2925 
Q 1872 3269 2151 3426 
Q 2431 3584 2822 3584 
Q 2878 3584 2943 3579 
Q 3009 3575 3134 3559 
L 3138 2547 
z
" transform="scale(0.015625)"/>
       <path id="DejaVuSans-Bold-74" d="M 1759 4494 
L 1759 3500 
L 2913 3500 
L 2913 2700 
L 1759 2700 
L 1759 1216 
Q 1759 972 1856 886 
Q 1953 800 2241 800 
L 2816 800 
L 2816 0 
L 1856 0 
Q 1194 0 917 276 
Q 641 553 641 1216 
L 641 2700 
L 84 2700 
L 84 3500 
L 641 3500 
L 641 4494 
L 1759 4494 
z
" transform="scale(0.015625)"/>
       <path id="DejaVuSans-Bold-20" transform="scale(0.015625)"/>
       <path id="DejaVuSans-Bold-41" d="M 3419 850 
L 1538 850 
L 1241 0 
L 31 0 
L 1759 4666 
L 3194 4666 
L 4922 0 
L 3713 0 
L 3419 850 
z
M 1838 1716 
L 3116 1716 
L 2478 3572 
L 1838 1716 
z
" transform="scale(0.015625)"/>
       <path id="DejaVuSans-Bold-6c" d="M 538 4863 
L 1656 4863 
L 1656 0 
L 538 0 
L 538 4863 
z
" transform="scale(0.015625)"/>
       <path id="DejaVuSans-Bold-65" d="M 4031 1759 
L 4031 1441 
L 1416 1441 
Q 1456 1047 1700 850 
Q 1944 653 2381 653 
Q 2734 653 3104 758 
Q 3475 863 3866 1075 
L 3866 213 
Q 3469 63 3072 -14 
Q 2675 -91 2278 -91 
Q 1328 -91 801 392 
Q 275 875 275 1747 
Q 275 2603 792 3093 
Q 1309 3584 2216 3584 
Q 3041 3584 3536 3087 
Q 4031 2591 4031 1759 
z
M 2881 2131 
Q 2881 2450 2695 2645 
Q 2509 2841 2209 2841 
Q 1884 2841 1681 2658 
Q 1478 2475 1428 2131 
L 2881 2131 
z
" transform="scale(0.015625)"/>
       <path id="DejaVuSans-Bold-67" d="M 2919 594 
Q 2688 288 2409 144 
Q 2131 0 1766 0 
Q 1125 0 706 504 
Q 288 1009 288 1791 
Q 288 2575 706 3076 
Q 1125 3578 1766 3578 
Q 2131 3578 2409 3434 
Q 2688 3291 2919 2981 
L 2919 3500 
L 4044 3500 
L 4044 353 
Q 4044 -491 3511 -936 
Q 2978 -1381 1966 -1381 
Q 1638 -1381 1331 -1331 
Q 1025 -1281 716 -1178 
L 716 -306 
Q 1009 -475 1290 -558 
Q 1572 -641 1856 -641 
Q 2406 -641 2662 -400 
Q 2919 -159 2919 353 
L 2919 594 
z
M 2181 2772 
Q 1834 2772 1640 2515 
Q 1447 2259 1447 1791 
Q 1447 1309 1634 1061 
Q 1822 813 2181 813 
Q 2531 813 2725 1069 
Q 2919 1325 2919 1791 
Q 2919 2259 2725 2515 
Q 2531 2772 2181 2772 
z
" transform="scale(0.015625)"/>
      </defs>
      <use xlink:href="#DejaVuSans-Bold-50"/>
      <use xlink:href="#DejaVuSans-Bold-6f" x="73.291016"/>
      <use xlink:href="#DejaVuSans-Bold-72" x="141.992188"/>
      <use xlink:href="#DejaVuSans-Bold-74" x="191.308594"/>
      <use xlink:href="#DejaVuSans-Bold-6f" x="239.111328"/>
      <use xlink:href="#DejaVuSans-Bold-20" x="307.8125"/>
      <use xlink:href="#DejaVuSans-Bold-41" x="342.626953"/>
      <use xlink:href="#DejaVuSans-Bold-6c" x="420.019531"/>
      <use xlink:href="#DejaVuSans-Bold-65" x="454.296875"/>
      <use xlink:href="#DejaVuSans-Bold-67" x="522.119141"/>
      <use xlink:href="#DejaVuSans-Bold-72" x="593.701172"/>
      <use xlink:href="#DejaVuSans-Bold-65" x="643.017578"/>
     </g>
    </g>
   </g>
   <g id="text_39">
    <g clip-path="url(#p7868e2a981)">
     <!-- Florianópolis -->
     <g transform="translate(950.272334 545.123867) scale(0.1 -0.1)">
      <defs>
       <path id="DejaVuSans-Bold-46" d="M 588 4666 
L 3834 4666 
L 3834 3756 
L 1791 3756 
L 1791 2888 
L 3713 2888 
L 3713 1978 
L 1791 1978 
L 1791 0 
L 588 0 
L 588 4666 
z
" transform="scale(0.015625)"/>
       <path id="DejaVuSans-Bold-69" d="M 538 3500 
L 1656 3500 
L 1656 0 
L 538 0 
L 538 3500 
z
M 538 4863 
L 1656 4863 
L 1656 3950 
L 538 3950 
L 538 4863 
z
" transform="scale(0.015625)"/>
       <path id="DejaVuSans-Bold-61" d="M 2106 1575 
Q 1756 1575 1579 1456 
Q 1403 1338 1403 1106 
Q 1403 894 1545 773 
Q 1688 653 1941 653 
Q 2256 653 2472 879 
Q 2688 1106 2688 1447 
L 2688 1575 
L 2106 1575 
z
M 3816 1997 
L 3816 0 
L 2688 0 
L 2688 519 
Q 2463 200 2181 54 
Q 1900 -91 1497 -91 
Q 953 -91 614 226 
Q 275 544 275 1050 
Q 275 1666 698 1953 
Q 1122 2241 2028 2241 
L 2688 2241 
L 2688 2328 
Q 2688 2594 2478 2717 
Q 2269 2841 1825 2841 
Q 1466 2841 1156 2769 
Q 847 2697 581 2553 
L 581 3406 
Q 941 3494 1303 3539 
Q 1666 3584 2028 3584 
Q 2975 3584 3395 3211 
Q 3816 2838 3816 1997 
z
" transform="scale(0.015625)"/>
       <path id="DejaVuSans-Bold-6e" d="M 4056 2131 
L 4056 0 
L 2931 0 
L 2931 347 
L 2931 1631 
Q 2931 2084 2911 2256 
Q 2891 2428 2841 2509 
Q 2775 2619 2662 2680 
Q 2550 2741 2406 2741 
Q 2056 2741 1856 2470 
Q 1656 2200 1656 1722 
L 1656 0 
L 538 0 
L 538 3500 
L 1656 3500 
L 1656 2988 
Q 1909 3294 2193 3439 
Q 2478 3584 2822 3584 
Q 3428 3584 3742 3212 
Q 4056 2841 4056 2131 
z
" transform="scale(0.015625)"/>
       <path id="DejaVuSans-Bold-f3" d="M 2203 2784 
Q 1831 2784 1636 2517 
Q 1441 2250 1441 1747 
Q 1441 1244 1636 976 
Q 1831 709 2203 709 
Q 2569 709 2762 976 
Q 2956 1244 2956 1747 
Q 2956 2250 2762 2517 
Q 2569 2784 2203 2784 
z
M 2203 3584 
Q 3106 3584 3614 3096 
Q 4122 2609 4122 1747 
Q 4122 884 3614 396 
Q 3106 -91 2203 -91 
Q 1297 -91 786 396 
Q 275 884 275 1747 
Q 275 2609 786 3096 
Q 1297 3584 2203 3584 
z
M 2694 5119 
L 3578 5119 
L 2425 3944 
L 1813 3944 
L 2694 5119 
z
" transform="scale(0.015625)"/>
       <path id="DejaVuSans-Bold-70" d="M 1656 506 
L 1656 -1331 
L 538 -1331 
L 538 3500 
L 1656 3500 
L 1656 2988 
Q 1888 3294 2169 3439 
Q 2450 3584 2816 3584 
Q 3463 3584 3878 3070 
Q 4294 2556 4294 1747 
Q 4294 938 3878 423 
Q 3463 -91 2816 -91 
Q 2450 -91 2169 54 
Q 1888 200 1656 506 
z
M 2400 2772 
Q 2041 2772 1848 2508 
Q 1656 2244 1656 1747 
Q 1656 1250 1848 986 
Q 2041 722 2400 722 
Q 2759 722 2948 984 
Q 3138 1247 3138 1747 
Q 3138 2247 2948 2509 
Q 2759 2772 2400 2772 
z
" transform="scale(0.015625)"/>
       <path id="DejaVuSans-Bold-73" d="M 3272 3391 
L 3272 2541 
Q 2913 2691 2578 2766 
Q 2244 2841 1947 2841 
Q 1628 2841 1473 2761 
Q 1319 2681 1319 2516 
Q 1319 2381 1436 2309 
Q 1553 2238 1856 2203 
L 2053 2175 
Q 2913 2066 3209 1816 
Q 3506 1566 3506 1031 
Q 3506 472 3093 190 
Q 2681 -91 1863 -91 
Q 1516 -91 1145 -36 
Q 775 19 384 128 
L 384 978 
Q 719 816 1070 734 
Q 1422 653 1784 653 
Q 2113 653 2278 743 
Q 2444 834 2444 1013 
Q 2444 1163 2330 1236 
Q 2216 1309 1875 1350 
L 1678 1375 
Q 931 1469 631 1722 
Q 331 1975 331 2491 
Q 331 3047 712 3315 
Q 1094 3584 1881 3584 
Q 2191 3584 2531 3537 
Q 2872 3491 3272 3391 
z
" transform="scale(0.015625)"/>
      </defs>
      <use xlink:href="#DejaVuSans-Bold-46"/>
      <use xlink:href="#DejaVuSans-Bold-6c" x="68.310547"/>
      <use xlink:href="#DejaVuSans-Bold-6f" x="102.587891"/>
      <use xlink:href="#DejaVuSans-Bold-72" x="171.289062"/>
      <use xlink:href="#DejaVuSans-Bold-69" x="220.605469"/>
      <use xlink:href="#DejaVuSans-Bold-61" x="254.882812"/>
      <use xlink:href="#DejaVuSans-Bold-6e" x="322.363281"/>
      <use xlink:href="#DejaVuSans-Bold-f3" x="393.554688"/>
      <use xlink:href="#DejaVuSans-Bold-70" x="462.255859"/>
      <use xlink:href="#DejaVuSans-Bold-6f" x="533.837891"/>
      <use xlink:href="#DejaVuSans-Bold-6c" x="602.539062"/>
      <use xlink:href="#DejaVuSans-Bold-69" x="636.816406"/>
      <use xlink:href="#DejaVuSans-Bold-73" x="671.09375"/>
     </g>
    </g>
   </g>
   <g id="text_40">
    <g clip-path="url(#p7868e2a981)">
     <!-- Curitiba -->
     <g transform="translate(913.524283 509.580481) scale(0.1 -0.1)">
      <defs>
       <path id="DejaVuSans-Bold-43" d="M 4288 256 
Q 3956 84 3597 -3 
Q 3238 -91 2847 -91 
Q 1681 -91 1000 561 
Q 319 1213 319 2328 
Q 319 3447 1000 4098 
Q 1681 4750 2847 4750 
Q 3238 4750 3597 4662 
Q 3956 4575 4288 4403 
L 4288 3438 
Q 3953 3666 3628 3772 
Q 3303 3878 2944 3878 
Q 2300 3878 1931 3465 
Q 1563 3053 1563 2328 
Q 1563 1606 1931 1193 
Q 2300 781 2944 781 
Q 3303 781 3628 887 
Q 3953 994 4288 1222 
L 4288 256 
z
" transform="scale(0.015625)"/>
       <path id="DejaVuSans-Bold-75" d="M 500 1363 
L 500 3500 
L 1625 3500 
L 1625 3150 
Q 1625 2866 1622 2436 
Q 1619 2006 1619 1863 
Q 1619 1441 1641 1255 
Q 1663 1069 1716 984 
Q 1784 875 1895 815 
Q 2006 756 2150 756 
Q 2500 756 2700 1025 
Q 2900 1294 2900 1772 
L 2900 3500 
L 4019 3500 
L 4019 0 
L 2900 0 
L 2900 506 
Q 2647 200 2364 54 
Q 2081 -91 1741 -91 
Q 1134 -91 817 281 
Q 500 653 500 1363 
z
" transform="scale(0.015625)"/>
       <path id="DejaVuSans-Bold-62" d="M 2400 722 
Q 2759 722 2948 984 
Q 3138 1247 3138 1747 
Q 3138 2247 2948 2509 
Q 2759 2772 2400 2772 
Q 2041 2772 1848 2508 
Q 1656 2244 1656 1747 
Q 1656 1250 1848 986 
Q 2041 722 2400 722 
z
M 1656 2988 
Q 1888 3294 2169 3439 
Q 2450 3584 2816 3584 
Q 3463 3584 3878 3070 
Q 4294 2556 4294 1747 
Q 4294 938 3878 423 
Q 3463 -91 2816 -91 
Q 2450 -91 2169 54 
Q 1888 200 1656 506 
L 1656 0 
L 538 0 
L 538 4863 
L 1656 4863 
L 1656 2988 
z
" transform="scale(0.015625)"/>
      </defs>
      <use xlink:href="#DejaVuSans-Bold-43"/>
      <use xlink:href="#DejaVuSans-Bold-75" x="73.388672"/>
      <use xlink:href="#DejaVuSans-Bold-72" x="144.580078"/>
      <use xlink:href="#DejaVuSans-Bold-69" x="193.896484"/>
      <use xlink:href="#DejaVuSans-Bold-74" x="228.173828"/>
      <use xlink:href="#DejaVuSans-Bold-69" x="275.976562"/>
      <use xlink:href="#DejaVuSans-Bold-62" x="310.253906"/>
      <use xlink:href="#DejaVuSans-Bold-61" x="381.835938"/>
     </g>
    </g>
   </g>
   <g id="text_41">
    <g clip-path="url(#p7868e2a981)">
     <!-- São Paulo -->
     <g transform="translate(1093.822064 478.933891) scale(0.1 -0.1)">
      <defs>
       <path id="DejaVuSans-Bold-53" d="M 3834 4519 
L 3834 3531 
Q 3450 3703 3084 3790 
Q 2719 3878 2394 3878 
Q 1963 3878 1756 3759 
Q 1550 3641 1550 3391 
Q 1550 3203 1689 3098 
Q 1828 2994 2194 2919 
L 2706 2816 
Q 3484 2659 3812 2340 
Q 4141 2022 4141 1434 
Q 4141 663 3683 286 
Q 3225 -91 2284 -91 
Q 1841 -91 1394 -6 
Q 947 78 500 244 
L 500 1259 
Q 947 1022 1364 901 
Q 1781 781 2169 781 
Q 2563 781 2772 912 
Q 2981 1044 2981 1288 
Q 2981 1506 2839 1625 
Q 2697 1744 2272 1838 
L 1806 1941 
Q 1106 2091 782 2419 
Q 459 2747 459 3303 
Q 459 4000 909 4375 
Q 1359 4750 2203 4750 
Q 2588 4750 2994 4692 
Q 3400 4634 3834 4519 
z
" transform="scale(0.015625)"/>
       <path id="DejaVuSans-Bold-e3" d="M 2106 1575 
Q 1756 1575 1579 1456 
Q 1403 1338 1403 1106 
Q 1403 894 1545 773 
Q 1688 653 1941 653 
Q 2256 653 2472 879 
Q 2688 1106 2688 1447 
L 2688 1575 
L 2106 1575 
z
M 3816 1997 
L 3816 0 
L 2688 0 
L 2688 519 
Q 2463 200 2181 54 
Q 1900 -91 1497 -91 
Q 953 -91 614 226 
Q 275 544 275 1050 
Q 275 1666 698 1953 
Q 1122 2241 2028 2241 
L 2688 2241 
L 2688 2328 
Q 2688 2594 2478 2717 
Q 2269 2841 1825 2841 
Q 1466 2841 1156 2769 
Q 847 2697 581 2553 
L 581 3406 
Q 941 3494 1303 3539 
Q 1666 3584 2028 3584 
Q 2975 3584 3395 3211 
Q 3816 2838 3816 1997 
z
M 2190 4263 
L 2018 4378 
Q 2006 4384 1987 4397 
Q 1840 4494 1762 4494 
Q 1650 4494 1590 4397 
Q 1531 4300 1531 4116 
L 1531 4091 
L 1097 4091 
Q 1097 4516 1257 4747 
Q 1418 4978 1709 4978 
Q 1822 4978 1936 4936 
Q 2050 4894 2178 4800 
L 2368 4666 
Q 2437 4619 2495 4594 
Q 2553 4569 2600 4569 
Q 2712 4569 2774 4669 
Q 2837 4769 2837 4947 
L 2837 4972 
L 3272 4972 
Q 3272 4547 3111 4315 
Q 2950 4084 2659 4084 
Q 2547 4084 2442 4121 
Q 2337 4159 2190 4263 
z
" transform="scale(0.015625)"/>
      </defs>
      <use xlink:href="#DejaVuSans-Bold-53"/>
      <use xlink:href="#DejaVuSans-Bold-e3" x="72.021484"/>
      <use xlink:href="#DejaVuSans-Bold-6f" x="139.501953"/>
      <use xlink:href="#DejaVuSans-Bold-20" x="208.203125"/>
      <use xlink:href="#DejaVuSans-Bold-50" x="243.017578"/>
      <use xlink:href="#DejaVuSans-Bold-61" x="313.683594"/>
      <use xlink:href="#DejaVuSans-Bold-75" x="381.164062"/>
      <use xlink:href="#DejaVuSans-Bold-6c" x="452.355469"/>
      <use xlink:href="#DejaVuSans-Bold-6f" x="486.632812"/>
     </g>
    </g>
   </g>
   <g id="text_42">
    <g clip-path="url(#p7868e2a981)">
     <!-- Rio de Janeiro -->
     <g transform="translate(1325.743294 468.436227) scale(0.1 -0.1)">
      <defs>
       <path id="DejaVuSans-Bold-52" d="M 2297 2597 
Q 2675 2597 2839 2737 
Q 3003 2878 3003 3200 
Q 3003 3519 2839 3656 
Q 2675 3794 2297 3794 
L 1791 3794 
L 1791 2597 
L 2297 2597 
z
M 1791 1766 
L 1791 0 
L 588 0 
L 588 4666 
L 2425 4666 
Q 3347 4666 3776 4356 
Q 4206 4047 4206 3378 
Q 4206 2916 3982 2619 
Q 3759 2322 3309 2181 
Q 3556 2125 3751 1926 
Q 3947 1728 4147 1325 
L 4800 0 
L 3519 0 
L 2950 1159 
Q 2778 1509 2601 1637 
Q 2425 1766 2131 1766 
L 1791 1766 
z
" transform="scale(0.015625)"/>
       <path id="DejaVuSans-Bold-64" d="M 2919 2988 
L 2919 4863 
L 4044 4863 
L 4044 0 
L 2919 0 
L 2919 506 
Q 2688 197 2409 53 
Q 2131 -91 1766 -91 
Q 1119 -91 703 423 
Q 288 938 288 1747 
Q 288 2556 703 3070 
Q 1119 3584 1766 3584 
Q 2128 3584 2408 3439 
Q 2688 3294 2919 2988 
z
M 2181 722 
Q 2541 722 2730 984 
Q 2919 1247 2919 1747 
Q 2919 2247 2730 2509 
Q 2541 2772 2181 2772 
Q 1825 2772 1636 2509 
Q 1447 2247 1447 1747 
Q 1447 1247 1636 984 
Q 1825 722 2181 722 
z
" transform="scale(0.015625)"/>
       <path id="DejaVuSans-Bold-4a" d="M 588 4666 
L 1791 4666 
L 1791 453 
Q 1791 -419 1317 -850 
Q 844 -1281 -116 -1281 
L -359 -1281 
L -359 -372 
L -172 -372 
Q 203 -372 395 -162 
Q 588 47 588 453 
L 588 4666 
z
" transform="scale(0.015625)"/>
      </defs>
      <use xlink:href="#DejaVuSans-Bold-52"/>
      <use xlink:href="#DejaVuSans-Bold-69" x="77.001953"/>
      <use xlink:href="#DejaVuSans-Bold-6f" x="111.279297"/>
      <use xlink:href="#DejaVuSans-Bold-20" x="179.980469"/>
      <use xlink:href="#DejaVuSans-Bold-64" x="214.794922"/>
      <use xlink:href="#DejaVuSans-Bold-65" x="286.376953"/>
      <use xlink:href="#DejaVuSans-Bold-20" x="354.199219"/>
      <use xlink:href="#DejaVuSans-Bold-4a" x="389.013672"/>
      <use xlink:href="#DejaVuSans-Bold-61" x="426.220703"/>
      <use xlink:href="#DejaVuSans-Bold-6e" x="493.701172"/>
      <use xlink:href="#DejaVuSans-Bold-65" x="564.892578"/>
      <use xlink:href="#DejaVuSans-Bold-69" x="632.714844"/>
      <use xlink:href="#DejaVuSans-Bold-72" x="666.992188"/>
      <use xlink:href="#DejaVuSans-Bold-6f" x="716.308594"/>
     </g>
    </g>
   </g>
   <g id="text_43">
    <g clip-path="url(#p7868e2a981)">
     <!-- Belo Horizonte -->
     <g transform="translate(1269.845724 419.672727) scale(0.1 -0.1)">
      <defs>
       <path id="DejaVuSans-Bold-42" d="M 2456 2859 
Q 2741 2859 2887 2984 
Q 3034 3109 3034 3353 
Q 3034 3594 2887 3720 
Q 2741 3847 2456 3847 
L 1791 3847 
L 1791 2859 
L 2456 2859 
z
M 2497 819 
Q 2859 819 3042 972 
Q 3225 1125 3225 1434 
Q 3225 1738 3044 1889 
Q 2863 2041 2497 2041 
L 1791 2041 
L 1791 819 
L 2497 819 
z
M 3616 2497 
Q 4003 2384 4215 2081 
Q 4428 1778 4428 1338 
Q 4428 663 3972 331 
Q 3516 0 2584 0 
L 588 0 
L 588 4666 
L 2394 4666 
Q 3366 4666 3802 4372 
Q 4238 4078 4238 3431 
Q 4238 3091 4078 2852 
Q 3919 2613 3616 2497 
z
" transform="scale(0.015625)"/>
       <path id="DejaVuSans-Bold-48" d="M 588 4666 
L 1791 4666 
L 1791 2888 
L 3566 2888 
L 3566 4666 
L 4769 4666 
L 4769 0 
L 3566 0 
L 3566 1978 
L 1791 1978 
L 1791 0 
L 588 0 
L 588 4666 
z
" transform="scale(0.015625)"/>
       <path id="DejaVuSans-Bold-7a" d="M 366 3500 
L 3419 3500 
L 3419 2719 
L 1575 800 
L 3419 800 
L 3419 0 
L 288 0 
L 288 781 
L 2131 2700 
L 366 2700 
L 366 3500 
z
" transform="scale(0.015625)"/>
      </defs>
      <use xlink:href="#DejaVuSans-Bold-42"/>
      <use xlink:href="#DejaVuSans-Bold-65" x="76.220703"/>
      <use xlink:href="#DejaVuSans-Bold-6c" x="144.042969"/>
      <use xlink:href="#DejaVuSans-Bold-6f" x="178.320312"/>
      <use xlink:href="#DejaVuSans-Bold-20" x="247.021484"/>
      <use xlink:href="#DejaVuSans-Bold-48" x="281.835938"/>
      <use xlink:href="#DejaVuSans-Bold-6f" x="365.527344"/>
      <use xlink:href="#DejaVuSans-Bold-72" x="434.228516"/>
      <use xlink:href="#DejaVuSans-Bold-69" x="483.544922"/>
      <use xlink:href="#DejaVuSans-Bold-7a" x="517.822266"/>
      <use xlink:href="#DejaVuSans-Bold-6f" x="576.025391"/>
      <use xlink:href="#DejaVuSans-Bold-6e" x="644.726562"/>
      <use xlink:href="#DejaVuSans-Bold-74" x="715.917969"/>
      <use xlink:href="#DejaVuSans-Bold-65" x="763.720703"/>
     </g>
    </g>
   </g>
   <g id="text_44">
    <g clip-path="url(#p7868e2a981)">
     <!-- Brasília -->
     <g transform="translate(1009.292569 352.211741) scale(0.1 -0.1)">
      <defs>
       <path id="DejaVuSans-Bold-ed" d="M 538 3500 
L 1656 3500 
L 1656 0 
L 538 0 
L 538 3500 
z
M 1590 5119 
L 2474 5119 
L 1321 3944 
L 709 3944 
L 1590 5119 
z
" transform="scale(0.015625)"/>
      </defs>
      <use xlink:href="#DejaVuSans-Bold-42"/>
      <use xlink:href="#DejaVuSans-Bold-72" x="76.220703"/>
      <use xlink:href="#DejaVuSans-Bold-61" x="125.537109"/>
      <use xlink:href="#DejaVuSans-Bold-73" x="193.017578"/>
      <use xlink:href="#DejaVuSans-Bold-ed" x="252.539062"/>
      <use xlink:href="#DejaVuSans-Bold-6c" x="286.816406"/>
      <use xlink:href="#DejaVuSans-Bold-69" x="321.09375"/>
      <use xlink:href="#DejaVuSans-Bold-61" x="355.371094"/>
     </g>
    </g>
   </g>
   <g id="text_45">
    <g clip-path="url(#p7868e2a981)">
     <!-- Palmas -->
     <g transform="translate(982.46214 262.010437) scale(0.1 -0.1)">
      <defs>
       <path id="DejaVuSans-Bold-6d" d="M 3781 2919 
Q 3994 3244 4286 3414 
Q 4578 3584 4928 3584 
Q 5531 3584 5847 3212 
Q 6163 2841 6163 2131 
L 6163 0 
L 5038 0 
L 5038 1825 
Q 5041 1866 5042 1909 
Q 5044 1953 5044 2034 
Q 5044 2406 4934 2573 
Q 4825 2741 4581 2741 
Q 4263 2741 4089 2478 
Q 3916 2216 3909 1719 
L 3909 0 
L 2784 0 
L 2784 1825 
Q 2784 2406 2684 2573 
Q 2584 2741 2328 2741 
Q 2006 2741 1831 2477 
Q 1656 2213 1656 1722 
L 1656 0 
L 531 0 
L 531 3500 
L 1656 3500 
L 1656 2988 
Q 1863 3284 2130 3434 
Q 2397 3584 2719 3584 
Q 3081 3584 3359 3409 
Q 3638 3234 3781 2919 
z
" transform="scale(0.015625)"/>
      </defs>
      <use xlink:href="#DejaVuSans-Bold-50"/>
      <use xlink:href="#DejaVuSans-Bold-61" x="70.666016"/>
      <use xlink:href="#DejaVuSans-Bold-6c" x="138.146484"/>
      <use xlink:href="#DejaVuSans-Bold-6d" x="172.423828"/>
      <use xlink:href="#DejaVuSans-Bold-61" x="276.623047"/>
      <use xlink:href="#DejaVuSans-Bold-73" x="344.103516"/>
     </g>
    </g>
   </g>
   <g id="text_46">
    <g clip-path="url(#p7868e2a981)">
     <!-- Imperatriz -->
     <g transform="translate(1033.29114 184.991146) scale(0.1 -0.1)">
      <defs>
       <path id="DejaVuSans-Bold-49" d="M 588 4666 
L 1791 4666 
L 1791 0 
L 588 0 
L 588 4666 
z
" transform="scale(0.015625)"/>
      </defs>
      <use xlink:href="#DejaVuSans-Bold-49"/>
      <use xlink:href="#DejaVuSans-Bold-6d" x="37.207031"/>
      <use xlink:href="#DejaVuSans-Bold-70" x="141.40625"/>
      <use xlink:href="#DejaVuSans-Bold-65" x="212.988281"/>
      <use xlink:href="#DejaVuSans-Bold-72" x="280.810547"/>
      <use xlink:href="#DejaVuSans-Bold-61" x="330.126953"/>
      <use xlink:href="#DejaVuSans-Bold-74" x="397.607422"/>
      <use xlink:href="#DejaVuSans-Bold-72" x="445.410156"/>
      <use xlink:href="#DejaVuSans-Bold-69" x="494.726562"/>
      <use xlink:href="#DejaVuSans-Bold-7a" x="529.003906"/>
     </g>
    </g>
   </g>
   <g id="text_47">
    <g clip-path="url(#p7868e2a981)">
     <!-- São Luís -->
     <g transform="translate(1261.649518 136.13632) scale(0.1 -0.1)">
      <defs>
       <path id="DejaVuSans-Bold-4c" d="M 588 4666 
L 1791 4666 
L 1791 909 
L 3903 909 
L 3903 0 
L 588 0 
L 588 4666 
z
" transform="scale(0.015625)"/>
      </defs>
      <use xlink:href="#DejaVuSans-Bold-53"/>
      <use xlink:href="#DejaVuSans-Bold-e3" x="72.021484"/>
      <use xlink:href="#DejaVuSans-Bold-6f" x="139.501953"/>
      <use xlink:href="#DejaVuSans-Bold-20" x="208.203125"/>
      <use xlink:href="#DejaVuSans-Bold-4c" x="243.017578"/>
      <use xlink:href="#DejaVuSans-Bold-75" x="306.738281"/>
      <use xlink:href="#DejaVuSans-Bold-ed" x="377.929688"/>
      <use xlink:href="#DejaVuSans-Bold-73" x="412.207031"/>
     </g>
    </g>
   </g>
   <g id="text_48">
    <!-- Rota Otimizada de Porto Alegre até São Luís (Maranhão) -->
    <g style="fill: #262626" transform="translate(884.75 80.28) scale(0.14 -0.14)">
     <defs>
      <path id="DejaVuSans-4f" d="M 2522 4238 
Q 1834 4238 1429 3725 
Q 1025 3213 1025 2328 
Q 1025 1447 1429 934 
Q 1834 422 2522 422 
Q 3209 422 3611 934 
Q 4013 1447 4013 2328 
Q 4013 3213 3611 3725 
Q 3209 4238 2522 4238 
z
M 2522 4750 
Q 3503 4750 4090 4092 
Q 4678 3434 4678 2328 
Q 4678 1225 4090 567 
Q 3503 -91 2522 -91 
Q 1538 -91 948 565 
Q 359 1222 359 2328 
Q 359 3434 948 4092 
Q 1538 4750 2522 4750 
z
" transform="scale(0.015625)"/>
      <path id="DejaVuSans-6d" d="M 3328 2828 
Q 3544 3216 3844 3400 
Q 4144 3584 4550 3584 
Q 5097 3584 5394 3201 
Q 5691 2819 5691 2113 
L 5691 0 
L 5113 0 
L 5113 2094 
Q 5113 2597 4934 2840 
Q 4756 3084 4391 3084 
Q 3944 3084 3684 2787 
Q 3425 2491 3425 1978 
L 3425 0 
L 2847 0 
L 2847 2094 
Q 2847 2600 2669 2842 
Q 2491 3084 2119 3084 
Q 1678 3084 1418 2786 
Q 1159 2488 1159 1978 
L 1159 0 
L 581 0 
L 581 3500 
L 1159 3500 
L 1159 2956 
Q 1356 3278 1631 3431 
Q 1906 3584 2284 3584 
Q 2666 3584 2933 3390 
Q 3200 3197 3328 2828 
z
" transform="scale(0.015625)"/>
      <path id="DejaVuSans-7a" d="M 353 3500 
L 3084 3500 
L 3084 2975 
L 922 459 
L 3084 459 
L 3084 0 
L 275 0 
L 275 525 
L 2438 3041 
L 353 3041 
L 353 3500 
z
" transform="scale(0.015625)"/>
      <path id="DejaVuSans-41" d="M 2188 4044 
L 1331 1722 
L 3047 1722 
L 2188 4044 
z
M 1831 4666 
L 2547 4666 
L 4325 0 
L 3669 0 
L 3244 1197 
L 1141 1197 
L 716 0 
L 50 0 
L 1831 4666 
z
" transform="scale(0.015625)"/>
      <path id="DejaVuSans-e9" d="M 3597 1894 
L 3597 1613 
L 953 1613 
Q 991 1019 1311 708 
Q 1631 397 2203 397 
Q 2534 397 2845 478 
Q 3156 559 3463 722 
L 3463 178 
Q 3153 47 2828 -22 
Q 2503 -91 2169 -91 
Q 1331 -91 842 396 
Q 353 884 353 1716 
Q 353 2575 817 3079 
Q 1281 3584 2069 3584 
Q 2775 3584 3186 3129 
Q 3597 2675 3597 1894 
z
M 3022 2063 
Q 3016 2534 2758 2815 
Q 2500 3097 2075 3097 
Q 1594 3097 1305 2825 
Q 1016 2553 972 2059 
L 3022 2063 
z
M 2466 5119 
L 3088 5119 
L 2070 3944 
L 1591 3944 
L 2466 5119 
z
" transform="scale(0.015625)"/>
      <path id="DejaVuSans-53" d="M 3425 4513 
L 3425 3897 
Q 3066 4069 2747 4153 
Q 2428 4238 2131 4238 
Q 1616 4238 1336 4038 
Q 1056 3838 1056 3469 
Q 1056 3159 1242 3001 
Q 1428 2844 1947 2747 
L 2328 2669 
Q 3034 2534 3370 2195 
Q 3706 1856 3706 1288 
Q 3706 609 3251 259 
Q 2797 -91 1919 -91 
Q 1588 -91 1214 -16 
Q 841 59 441 206 
L 441 856 
Q 825 641 1194 531 
Q 1563 422 1919 422 
Q 2459 422 2753 634 
Q 3047 847 3047 1241 
Q 3047 1584 2836 1778 
Q 2625 1972 2144 2069 
L 1759 2144 
Q 1053 2284 737 2584 
Q 422 2884 422 3419 
Q 422 4038 858 4394 
Q 1294 4750 2059 4750 
Q 2388 4750 2728 4690 
Q 3069 4631 3425 4513 
z
" transform="scale(0.015625)"/>
      <path id="DejaVuSans-75" d="M 544 1381 
L 544 3500 
L 1119 3500 
L 1119 1403 
Q 1119 906 1312 657 
Q 1506 409 1894 409 
Q 2359 409 2629 706 
Q 2900 1003 2900 1516 
L 2900 3500 
L 3475 3500 
L 3475 0 
L 2900 0 
L 2900 538 
Q 2691 219 2414 64 
Q 2138 -91 1772 -91 
Q 1169 -91 856 284 
Q 544 659 544 1381 
z
M 1991 3584 
L 1991 3584 
z
" transform="scale(0.015625)"/>
      <path id="DejaVuSans-ed" d="M 1322 5119 
L 1944 5119 
L 926 3944 
L 447 3944 
L 1322 5119 
z
M 603 3500 
L 1178 3500 
L 1178 0 
L 603 0 
L 603 3500 
z
M 891 3584 
L 891 3584 
z
" transform="scale(0.015625)"/>
      <path id="DejaVuSans-28" d="M 1984 4856 
Q 1566 4138 1362 3434 
Q 1159 2731 1159 2009 
Q 1159 1288 1364 580 
Q 1569 -128 1984 -844 
L 1484 -844 
Q 1016 -109 783 600 
Q 550 1309 550 2009 
Q 550 2706 781 3412 
Q 1013 4119 1484 4856 
L 1984 4856 
z
" transform="scale(0.015625)"/>
      <path id="DejaVuSans-29" d="M 513 4856 
L 1013 4856 
Q 1481 4119 1714 3412 
Q 1947 2706 1947 2009 
Q 1947 1309 1714 600 
Q 1481 -109 1013 -844 
L 513 -844 
Q 928 -128 1133 580 
Q 1338 1288 1338 2009 
Q 1338 2731 1133 3434 
Q 928 4138 513 4856 
z
" transform="scale(0.015625)"/>
     </defs>
     <use xlink:href="#DejaVuSans-52"/>
     <use xlink:href="#DejaVuSans-6f" x="64.982422"/>
     <use xlink:href="#DejaVuSans-74" x="126.164062"/>
     <use xlink:href="#DejaVuSans-61" x="165.373047"/>
     <use xlink:href="#DejaVuSans-20" x="226.652344"/>
     <use xlink:href="#DejaVuSans-4f" x="258.439453"/>
     <use xlink:href="#DejaVuSans-74" x="337.150391"/>
     <use xlink:href="#DejaVuSans-69" x="376.359375"/>
     <use xlink:href="#DejaVuSans-6d" x="404.142578"/>
     <use xlink:href="#DejaVuSans-69" x="501.554688"/>
     <use xlink:href="#DejaVuSans-7a" x="529.337891"/>
     <use xlink:href="#DejaVuSans-61" x="581.828125"/>
     <use xlink:href="#DejaVuSans-64" x="643.107422"/>
     <use xlink:href="#DejaVuSans-61" x="706.583984"/>
     <use xlink:href="#DejaVuSans-20" x="767.863281"/>
     <use xlink:href="#DejaVuSans-64" x="799.650391"/>
     <use xlink:href="#DejaVuSans-65" x="863.126953"/>
     <use xlink:href="#DejaVuSans-20" x="924.650391"/>
     <use xlink:href="#DejaVuSans-50" x="956.4375"/>
     <use xlink:href="#DejaVuSans-6f" x="1013.115234"/>
     <use xlink:href="#DejaVuSans-72" x="1074.296875"/>
     <use xlink:href="#DejaVuSans-74" x="1115.410156"/>
     <use xlink:href="#DejaVuSans-6f" x="1154.619141"/>
     <use xlink:href="#DejaVuSans-20" x="1215.800781"/>
     <use xlink:href="#DejaVuSans-41" x="1247.587891"/>
     <use xlink:href="#DejaVuSans-6c" x="1315.996094"/>
     <use xlink:href="#DejaVuSans-65" x="1343.779297"/>
     <use xlink:href="#DejaVuSans-67" x="1405.302734"/>
     <use xlink:href="#DejaVuSans-72" x="1468.779297"/>
     <use xlink:href="#DejaVuSans-65" x="1507.642578"/>
     <use xlink:href="#DejaVuSans-20" x="1569.166016"/>
     <use xlink:href="#DejaVuSans-61" x="1600.953125"/>
     <use xlink:href="#DejaVuSans-74" x="1662.232422"/>
     <use xlink:href="#DejaVuSans-e9" x="1701.441406"/>
     <use xlink:href="#DejaVuSans-20" x="1762.964844"/>
     <use xlink:href="#DejaVuSans-53" x="1794.751953"/>
     <use xlink:href="#DejaVuSans-e3" x="1858.228516"/>
     <use xlink:href="#DejaVuSans-6f" x="1919.507812"/>
     <use xlink:href="#DejaVuSans-20" x="1980.689453"/>
     <use xlink:href="#DejaVuSans-4c" x="2012.476562"/>
     <use xlink:href="#DejaVuSans-75" x="2066.439453"/>
     <use xlink:href="#DejaVuSans-ed" x="2129.818359"/>
     <use xlink:href="#DejaVuSans-73" x="2157.601562"/>
     <use xlink:href="#DejaVuSans-20" x="2209.701172"/>
     <use xlink:href="#DejaVuSans-28" x="2241.488281"/>
     <use xlink:href="#DejaVuSans-4d" x="2280.501953"/>
     <use xlink:href="#DejaVuSans-61" x="2366.78125"/>
     <use xlink:href="#DejaVuSans-72" x="2428.060547"/>
     <use xlink:href="#DejaVuSans-61" x="2469.173828"/>
     <use xlink:href="#DejaVuSans-6e" x="2530.453125"/>
     <use xlink:href="#DejaVuSans-68" x="2593.832031"/>
     <use xlink:href="#DejaVuSans-e3" x="2657.210938"/>
     <use xlink:href="#DejaVuSans-6f" x="2718.490234"/>
     <use xlink:href="#DejaVuSans-29" x="2779.671875"/>
    </g>
   </g>
   <g id="legend_2">
    <g id="patch_22">
     <path d="M 1276.391875 544.54591 
L 1296.391875 544.54591 
L 1296.391875 537.54591 
L 1276.391875 537.54591 
z
" style="fill: #ffd700; stroke: #000000; stroke-linejoin: miter"/>
    </g>
    <g id="text_49">
     <!-- Origem/Destino -->
     <g style="fill: #262626" transform="translate(1304.391875 544.54591) scale(0.1 -0.1)">
      <defs>
       <path id="DejaVuSans-2f" d="M 1625 4666 
L 2156 4666 
L 531 -594 
L 0 -594 
L 1625 4666 
z
" transform="scale(0.015625)"/>
      </defs>
      <use xlink:href="#DejaVuSans-4f"/>
      <use xlink:href="#DejaVuSans-72" x="78.710938"/>
      <use xlink:href="#DejaVuSans-69" x="119.824219"/>
      <use xlink:href="#DejaVuSans-67" x="147.607422"/>
      <use xlink:href="#DejaVuSans-65" x="211.083984"/>
      <use xlink:href="#DejaVuSans-6d" x="272.607422"/>
      <use xlink:href="#DejaVuSans-2f" x="370.019531"/>
      <use xlink:href="#DejaVuSans-44" x="403.710938"/>
      <use xlink:href="#DejaVuSans-65" x="480.712891"/>
      <use xlink:href="#DejaVuSans-73" x="542.236328"/>
      <use xlink:href="#DejaVuSans-74" x="594.335938"/>
      <use xlink:href="#DejaVuSans-69" x="633.544922"/>
      <use xlink:href="#DejaVuSans-6e" x="661.328125"/>
      <use xlink:href="#DejaVuSans-6f" x="724.707031"/>
     </g>
    </g>
    <g id="patch_23">
     <path d="M 1276.391875 559.224035 
L 1296.391875 559.224035 
L 1296.391875 552.224035 
L 1276.391875 552.224035 
z
" style="fill: #90ee90; stroke: #000000; stroke-linejoin: miter"/>
    </g>
    <g id="text_50">
     <!-- Cidades-chave -->
     <g style="fill: #262626" transform="translate(1304.391875 559.224035) scale(0.1 -0.1)">
      <defs>
       <path id="DejaVuSans-43" d="M 4122 4306 
L 4122 3641 
Q 3803 3938 3442 4084 
Q 3081 4231 2675 4231 
Q 1875 4231 1450 3742 
Q 1025 3253 1025 2328 
Q 1025 1406 1450 917 
Q 1875 428 2675 428 
Q 3081 428 3442 575 
Q 3803 722 4122 1019 
L 4122 359 
Q 3791 134 3420 21 
Q 3050 -91 2638 -91 
Q 1578 -91 968 557 
Q 359 1206 359 2328 
Q 359 3453 968 4101 
Q 1578 4750 2638 4750 
Q 3056 4750 3426 4639 
Q 3797 4528 4122 4306 
z
" transform="scale(0.015625)"/>
       <path id="DejaVuSans-2d" d="M 313 2009 
L 1997 2009 
L 1997 1497 
L 313 1497 
L 313 2009 
z
" transform="scale(0.015625)"/>
      </defs>
      <use xlink:href="#DejaVuSans-43"/>
      <use xlink:href="#DejaVuSans-69" x="69.824219"/>
      <use xlink:href="#DejaVuSans-64" x="97.607422"/>
      <use xlink:href="#DejaVuSans-61" x="161.083984"/>
      <use xlink:href="#DejaVuSans-64" x="222.363281"/>
      <use xlink:href="#DejaVuSans-65" x="285.839844"/>
      <use xlink:href="#DejaVuSans-73" x="347.363281"/>
      <use xlink:href="#DejaVuSans-2d" x="399.462891"/>
      <use xlink:href="#DejaVuSans-63" x="435.546875"/>
      <use xlink:href="#DejaVuSans-68" x="490.527344"/>
      <use xlink:href="#DejaVuSans-61" x="553.90625"/>
      <use xlink:href="#DejaVuSans-76" x="615.185547"/>
      <use xlink:href="#DejaVuSans-65" x="674.365234"/>
     </g>
    </g>
    <g id="patch_24">
     <path d="M 1276.391875 573.90216 
L 1296.391875 573.90216 
L 1296.391875 566.90216 
L 1276.391875 566.90216 
z
" style="fill: #add8e6; stroke: #000000; stroke-linejoin: miter"/>
    </g>
    <g id="text_51">
     <!-- Na rota -->
     <g style="fill: #262626" transform="translate(1304.391875 573.90216) scale(0.1 -0.1)">
      <defs>
       <path id="DejaVuSans-4e" d="M 628 4666 
L 1478 4666 
L 3547 763 
L 3547 4666 
L 4159 4666 
L 4159 0 
L 3309 0 
L 1241 3903 
L 1241 0 
L 628 0 
L 628 4666 
z
" transform="scale(0.015625)"/>
      </defs>
      <use xlink:href="#DejaVuSans-4e"/>
      <use xlink:href="#DejaVuSans-61" x="74.804688"/>
      <use xlink:href="#DejaVuSans-20" x="136.083984"/>
      <use xlink:href="#DejaVuSans-72" x="167.871094"/>
      <use xlink:href="#DejaVuSans-6f" x="206.734375"/>
      <use xlink:href="#DejaVuSans-74" x="267.916016"/>
      <use xlink:href="#DejaVuSans-61" x="307.125"/>
     </g>
    </g>
    <g id="patch_25">
     <path d="M 1276.391875 588.580285 
L 1296.391875 588.580285 
L 1296.391875 581.580285 
L 1276.391875 581.580285 
z
" style="fill: #ffffff; stroke: #000000; stroke-linejoin: miter"/>
    </g>
    <g id="text_52">
     <!-- Fora da rota -->
     <g style="fill: #262626" transform="translate(1304.391875 588.580285) scale(0.1 -0.1)">
      <defs>
       <path id="DejaVuSans-46" d="M 628 4666 
L 3309 4666 
L 3309 4134 
L 1259 4134 
L 1259 2759 
L 3109 2759 
L 3109 2228 
L 1259 2228 
L 1259 0 
L 628 0 
L 628 4666 
z
" transform="scale(0.015625)"/>
      </defs>
      <use xlink:href="#DejaVuSans-46"/>
      <use xlink:href="#DejaVuSans-6f" x="53.894531"/>
      <use xlink:href="#DejaVuSans-72" x="115.076172"/>
      <use xlink:href="#DejaVuSans-61" x="156.189453"/>
      <use xlink:href="#DejaVuSans-20" x="217.46875"/>
      <use xlink:href="#DejaVuSans-64" x="249.255859"/>
      <use xlink:href="#DejaVuSans-61" x="312.732422"/>
      <use xlink:href="#DejaVuSans-20" x="374.011719"/>
      <use xlink:href="#DejaVuSans-72" x="405.798828"/>
      <use xlink:href="#DejaVuSans-6f" x="444.662109"/>
      <use xlink:href="#DejaVuSans-74" x="505.84375"/>
      <use xlink:href="#DejaVuSans-61" x="545.052734"/>
     </g>
    </g>
    <g id="line2d_39">
     <path d="M 1276.391875 599.75841 
L 1286.391875 599.75841 
L 1296.391875 599.75841 
" style="fill: none; stroke: #ff0000; stroke-width: 3; stroke-linecap: round"/>
    </g>
    <g id="text_53">
     <!-- Rota selecionada -->
     <g style="fill: #262626" transform="translate(1304.391875 603.25841) scale(0.1 -0.1)">
      <use xlink:href="#DejaVuSans-52"/>
      <use xlink:href="#DejaVuSans-6f" x="64.982422"/>
      <use xlink:href="#DejaVuSans-74" x="126.164062"/>
      <use xlink:href="#DejaVuSans-61" x="165.373047"/>
      <use xlink:href="#DejaVuSans-20" x="226.652344"/>
      <use xlink:href="#DejaVuSans-73" x="258.439453"/>
      <use xlink:href="#DejaVuSans-65" x="310.539062"/>
      <use xlink:href="#DejaVuSans-6c" x="372.0625"/>
      <use xlink:href="#DejaVuSans-65" x="399.845703"/>
      <use xlink:href="#DejaVuSans-63" x="461.369141"/>
      <use xlink:href="#DejaVuSans-69" x="516.349609"/>
      <use xlink:href="#DejaVuSans-6f" x="544.132812"/>
      <use xlink:href="#DejaVuSans-6e" x="605.314453"/>
      <use xlink:href="#DejaVuSans-61" x="668.693359"/>
      <use xlink:href="#DejaVuSans-64" x="729.972656"/>
      <use xlink:href="#DejaVuSans-61" x="793.449219"/>
     </g>
    </g>
    <g id="line2d_40">
     <path d="M 1276.391875 614.436535 
L 1286.391875 614.436535 
L 1296.391875 614.436535 
" style="fill: none; stroke: #808080; stroke-linecap: round"/>
    </g>
    <g id="text_54">
     <!-- Conexões alternativas -->
     <g style="fill: #262626" transform="translate(1304.391875 617.936535) scale(0.1 -0.1)">
      <defs>
       <path id="DejaVuSans-78" d="M 3513 3500 
L 2247 1797 
L 3578 0 
L 2900 0 
L 1881 1375 
L 863 0 
L 184 0 
L 1544 1831 
L 300 3500 
L 978 3500 
L 1906 2253 
L 2834 3500 
L 3513 3500 
z
" transform="scale(0.015625)"/>
       <path id="DejaVuSans-f5" d="M 1959 3097 
Q 1497 3097 1228 2736 
Q 959 2375 959 1747 
Q 959 1119 1226 758 
Q 1494 397 1959 397 
Q 2419 397 2687 759 
Q 2956 1122 2956 1747 
Q 2956 2369 2687 2733 
Q 2419 3097 1959 3097 
z
M 1959 3584 
Q 2709 3584 3137 3096 
Q 3566 2609 3566 1747 
Q 3566 888 3137 398 
Q 2709 -91 1959 -91 
Q 1206 -91 779 398 
Q 353 888 353 1747 
Q 353 2609 779 3096 
Q 1206 3584 1959 3584 
z
M 1948 4281 
L 1769 4453 
Q 1701 4516 1649 4545 
Q 1598 4575 1557 4575 
Q 1438 4575 1382 4461 
Q 1326 4347 1319 4091 
L 929 4091 
Q 935 4513 1094 4742 
Q 1254 4972 1538 4972 
Q 1657 4972 1757 4928 
Q 1857 4884 1973 4781 
L 2151 4609 
Q 2219 4547 2271 4517 
Q 2323 4488 2363 4488 
Q 2482 4488 2538 4602 
Q 2594 4716 2601 4972 
L 2991 4972 
Q 2985 4550 2825 4320 
Q 2666 4091 2382 4091 
Q 2263 4091 2163 4134 
Q 2063 4178 1948 4281 
z
" transform="scale(0.015625)"/>
      </defs>
      <use xlink:href="#DejaVuSans-43"/>
      <use xlink:href="#DejaVuSans-6f" x="69.824219"/>
      <use xlink:href="#DejaVuSans-6e" x="131.005859"/>
      <use xlink:href="#DejaVuSans-65" x="194.384766"/>
      <use xlink:href="#DejaVuSans-78" x="254.158203"/>
      <use xlink:href="#DejaVuSans-f5" x="310.212891"/>
      <use xlink:href="#DejaVuSans-65" x="371.394531"/>
      <use xlink:href="#DejaVuSans-73" x="432.917969"/>
      <use xlink:href="#DejaVuSans-20" x="485.017578"/>
      <use xlink:href="#DejaVuSans-61" x="516.804688"/>
      <use xlink:href="#DejaVuSans-6c" x="578.083984"/>
      <use xlink:href="#DejaVuSans-74" x="605.867188"/>
      <use xlink:href="#DejaVuSans-65" x="645.076172"/>
      <use xlink:href="#DejaVuSans-72" x="706.599609"/>
      <use xlink:href="#DejaVuSans-6e" x="745.962891"/>
      <use xlink:href="#DejaVuSans-61" x="809.341797"/>
      <use xlink:href="#DejaVuSans-74" x="870.621094"/>
      <use xlink:href="#DejaVuSans-69" x="909.830078"/>
      <use xlink:href="#DejaVuSans-76" x="937.613281"/>
      <use xlink:href="#DejaVuSans-61" x="996.792969"/>
      <use xlink:href="#DejaVuSans-73" x="1058.072266"/>
     </g>
    </g>
   </g>
  </g>
  <g id="text_55">
   <!-- Sistema de Navegação: Porto Alegre até Maranhão -->
   <g style="fill: #262626" transform="translate(485.409688 21.597187) scale(0.18 -0.18)">
    <defs>
     <path id="DejaVuSans-e7" d="M 3122 3366 
L 3122 2828 
Q 2878 2963 2633 3030 
Q 2388 3097 2138 3097 
Q 1578 3097 1268 2742 
Q 959 2388 959 1747 
Q 959 1106 1268 751 
Q 1578 397 2138 397 
Q 2388 397 2633 464 
Q 2878 531 3122 666 
L 3122 134 
Q 2881 22 2623 -34 
Q 2366 -91 2075 -91 
Q 1284 -91 818 406 
Q 353 903 353 1747 
Q 353 2603 823 3093 
Q 1294 3584 2113 3584 
Q 2378 3584 2631 3529 
Q 2884 3475 3122 3366 
z
M 2311 0 
Q 2482 -194 2566 -358 
Q 2651 -522 2651 -672 
Q 2651 -950 2463 -1092 
Q 2276 -1234 1907 -1234 
Q 1764 -1234 1628 -1215 
Q 1492 -1197 1357 -1159 
L 1357 -750 
Q 1464 -803 1579 -826 
Q 1695 -850 1842 -850 
Q 2026 -850 2120 -775 
Q 2214 -700 2214 -556 
Q 2214 -463 2146 -327 
Q 2079 -191 1939 0 
L 2311 0 
z
" transform="scale(0.015625)"/>
     <path id="DejaVuSans-3a" d="M 750 794 
L 1409 794 
L 1409 0 
L 750 0 
L 750 794 
z
M 750 3309 
L 1409 3309 
L 1409 2516 
L 750 2516 
L 750 3309 
z
" transform="scale(0.015625)"/>
    </defs>
    <use xlink:href="#DejaVuSans-53"/>
    <use xlink:href="#DejaVuSans-69" x="63.476562"/>
    <use xlink:href="#DejaVuSans-73" x="91.259766"/>
    <use xlink:href="#DejaVuSans-74" x="143.359375"/>
    <use xlink:href="#DejaVuSans-65" x="182.568359"/>
    <use xlink:href="#DejaVuSans-6d" x="244.091797"/>
    <use xlink:href="#DejaVuSans-61" x="341.503906"/>
    <use xlink:href="#DejaVuSans-20" x="402.783203"/>
    <use xlink:href="#DejaVuSans-64" x="434.570312"/>
    <use xlink:href="#DejaVuSans-65" x="498.046875"/>
    <use xlink:href="#DejaVuSans-20" x="559.570312"/>
    <use xlink:href="#DejaVuSans-4e" x="591.357422"/>
    <use xlink:href="#DejaVuSans-61" x="666.162109"/>
    <use xlink:href="#DejaVuSans-76" x="727.441406"/>
    <use xlink:href="#DejaVuSans-65" x="786.621094"/>
    <use xlink:href="#DejaVuSans-67" x="848.144531"/>
    <use xlink:href="#DejaVuSans-61" x="911.621094"/>
    <use xlink:href="#DejaVuSans-e7" x="972.900391"/>
    <use xlink:href="#DejaVuSans-e3" x="1027.880859"/>
    <use xlink:href="#DejaVuSans-6f" x="1089.160156"/>
    <use xlink:href="#DejaVuSans-3a" x="1150.341797"/>
    <use xlink:href="#DejaVuSans-20" x="1184.033203"/>
    <use xlink:href="#DejaVuSans-50" x="1215.820312"/>
    <use xlink:href="#DejaVuSans-6f" x="1272.498047"/>
    <use xlink:href="#DejaVuSans-72" x="1333.679688"/>
    <use xlink:href="#DejaVuSans-74" x="1374.792969"/>
    <use xlink:href="#DejaVuSans-6f" x="1414.001953"/>
    <use xlink:href="#DejaVuSans-20" x="1475.183594"/>
    <use xlink:href="#DejaVuSans-41" x="1506.970703"/>
    <use xlink:href="#DejaVuSans-6c" x="1575.378906"/>
    <use xlink:href="#DejaVuSans-65" x="1603.162109"/>
    <use xlink:href="#DejaVuSans-67" x="1664.685547"/>
    <use xlink:href="#DejaVuSans-72" x="1728.162109"/>
    <use xlink:href="#DejaVuSans-65" x="1767.025391"/>
    <use xlink:href="#DejaVuSans-20" x="1828.548828"/>
    <use xlink:href="#DejaVuSans-61" x="1860.335938"/>
    <use xlink:href="#DejaVuSans-74" x="1921.615234"/>
    <use xlink:href="#DejaVuSans-e9" x="1960.824219"/>
    <use xlink:href="#DejaVuSans-20" x="2022.347656"/>
    <use xlink:href="#DejaVuSans-4d" x="2054.134766"/>
    <use xlink:href="#DejaVuSans-61" x="2140.414062"/>
    <use xlink:href="#DejaVuSans-72" x="2201.693359"/>
    <use xlink:href="#DejaVuSans-61" x="2242.806641"/>
    <use xlink:href="#DejaVuSans-6e" x="2304.085938"/>
    <use xlink:href="#DejaVuSans-68" x="2367.464844"/>
    <use xlink:href="#DejaVuSans-e3" x="2430.84375"/>
    <use xlink:href="#DejaVuSans-6f" x="2492.123047"/>
   </g>
  </g>
 </g>
 <defs>
  <clipPath id="p7e985b9559">
   <rect x="44.200625" y="86.28" width="684.705" height="542.736222"/>
  </clipPath>
  <clipPath id="p7868e2a981">
   <rect x="739.705625" y="86.28" width="684.705" height="542.736222"/>
  </clipPath>
 </defs>
</svg>
